<svg width="336" height="250" viewBox="0 0 336 250" fill="none" xmlns="http://www.w3.org/2000/svg">
<path d="M335.516 219.696H0V219.864H335.516V219.696Z" fill="#EBEBEB"/>
<path d="M301.898 230.493H279.673V230.661H301.898V230.493Z" fill="#EBEBEB"/>
<path d="M222.26 232.318H216.428V232.486H222.26V232.318Z" fill="#EBEBEB"/>
<path d="M279.002 224.266H266.125V224.433H279.002V224.266Z" fill="#EBEBEB"/>
<path d="M64.1843 225.394H35.2024V225.561H64.1843V225.394Z" fill="#EBEBEB"/>
<path d="M74.4107 225.394H70.1631V225.561H74.4107V225.394Z" fill="#EBEBEB"/>
<path d="M151.083 228.225H88.2207V228.392H151.083V228.225Z" fill="#EBEBEB"/>
<path d="M159.035 189.768H29.465C28.45 189.766 27.4771 189.362 26.76 188.643C26.0429 187.925 25.6401 186.952 25.6401 185.937V3.79805C25.649 2.78883 26.0556 1.82385 26.7718 1.11272C27.488 0.401585 28.4558 0.00172884 29.465 0H159.035C160.051 0 161.026 0.403685 161.744 1.12225C162.463 1.84081 162.866 2.81539 162.866 3.8316V185.937C162.866 186.953 162.463 187.927 161.744 188.646C161.026 189.364 160.051 189.768 159.035 189.768V189.768ZM29.465 0.134207C28.4945 0.135985 27.5643 0.522778 26.8786 1.20969C26.193 1.8966 25.8079 2.8275 25.8079 3.79805V185.937C25.8079 186.907 26.193 187.838 26.8786 188.525C27.5643 189.212 28.4945 189.599 29.465 189.6H159.035C160.006 189.599 160.937 189.212 161.624 188.525C162.31 187.839 162.697 186.908 162.699 185.937V3.79805C162.697 2.82688 162.31 1.896 161.624 1.20928C160.937 0.52256 160.006 0.135981 159.035 0.134207H29.465Z" fill="#EBEBEB"/>
<path d="M304.186 189.768H174.609C173.594 189.766 172.62 189.362 171.902 188.644C171.184 187.926 170.78 186.952 170.778 185.937V3.79805C170.788 2.78822 171.197 1.82325 171.914 1.1123C172.631 0.401351 173.6 0.00170999 174.609 0H304.186C305.194 0.00349239 306.16 0.404129 306.875 1.11507C307.589 1.82602 307.995 2.78999 308.004 3.79805V185.937C308.004 186.95 307.602 187.923 306.887 188.641C306.171 189.359 305.2 189.765 304.186 189.768V189.768ZM174.609 0.134207C173.638 0.135981 172.707 0.52256 172.021 1.20928C171.334 1.896 170.947 2.82688 170.946 3.79805V185.937C170.947 186.908 171.334 187.839 172.021 188.525C172.707 189.212 173.638 189.599 174.609 189.6H304.186C305.157 189.599 306.088 189.212 306.775 188.525C307.461 187.839 307.848 186.908 307.85 185.937V3.79805C307.848 2.82688 307.461 1.896 306.775 1.20928C306.088 0.52256 305.157 0.135981 304.186 0.134207H174.609Z" fill="#EBEBEB"/>
<path d="M194.392 79.8936L286.846 79.8936V19.3463L194.392 19.3463V79.8936Z" fill="#E6E6E6"/>
<path d="M191.566 79.8936L285.524 79.8936V19.3463L191.566 19.3463V79.8936Z" fill="#F0F0F0"/>
<path d="M194.392 91.7705L286.846 91.7705V79.8865L194.392 79.8865V91.7705Z" fill="#E6E6E6"/>
<path d="M186.876 91.7705L280.834 91.7705V79.8865L186.876 79.8865V91.7705Z" fill="#F0F0F0"/>
<path d="M281.579 75.9471V23.2979L195.519 23.2979V75.9471H281.579Z" fill="#FAFAFA"/>
<path d="M262.172 75.9404L251.181 23.2979H234.029L245.021 75.9404H262.172Z" fill="white"/>
<path d="M279.754 72.0148C279.791 72.0148 279.828 72.0073 279.863 71.9927C279.898 71.9781 279.929 71.9568 279.955 71.9299C279.982 71.903 280.002 71.8711 280.016 71.8362C280.03 71.8012 280.036 71.7638 280.035 71.7262V25.8679C280.035 25.7931 280.006 25.7214 279.953 25.6686C279.9 25.6157 279.828 25.586 279.754 25.586C279.716 25.5851 279.679 25.5918 279.645 25.6056C279.61 25.6194 279.579 25.6402 279.552 25.6665C279.526 25.6929 279.505 25.7243 279.491 25.7589C279.478 25.7935 279.471 25.8306 279.472 25.8679V71.7262C279.471 71.7638 279.477 71.8012 279.491 71.8362C279.505 71.8711 279.526 71.903 279.552 71.9299C279.578 71.9568 279.61 71.9781 279.644 71.9927C279.679 72.0073 279.716 72.0148 279.754 72.0148V72.0148Z" fill="#F0F0F0"/>
<path d="M241.337 75.9404L230.345 23.2979H223.655L234.654 75.9404H241.337Z" fill="white"/>
<path d="M196.022 75.9471V23.2979H195.519V75.9471H196.022Z" fill="#E6E6E6"/>
<path opacity="0.6" d="M190.64 29.2502H283.095L283.458 24.8281H191.003L190.64 29.2502Z" fill="#EBEBEB"/>
<path opacity="0.6" d="M190.64 36.4974H283.095L283.458 32.082H191.003L190.64 36.4974Z" fill="#EBEBEB"/>
<path opacity="0.6" d="M190.64 43.7445H283.095L283.458 39.3291H191.003L190.64 43.7445Z" fill="#EBEBEB"/>
<path opacity="0.6" d="M190.64 50.9983H283.095L283.458 46.5762H191.003L190.64 50.9983Z" fill="#EBEBEB"/>
<path opacity="0.6" d="M190.64 58.2453H283.095L283.458 53.8232H191.003L190.64 58.2453Z" fill="#EBEBEB"/>
<path opacity="0.6" d="M190.64 65.4924H283.095L283.458 61.0703H191.003L190.64 65.4924Z" fill="#EBEBEB"/>
<path d="M273.573 175.663H254.187V179.488H273.573V175.663Z" fill="#E6E6E6"/>
<path d="M217.623 219.696H221.199V131.744H217.623V219.696Z" fill="#E6E6E6"/>
<path d="M205.222 179.488H254.18V175.663H205.222V179.488Z" fill="#F5F5F5"/>
<path d="M273.573 196.579H254.187V200.404H273.573V196.579Z" fill="#E6E6E6"/>
<path d="M205.222 200.397H254.18V196.573H205.222V200.397Z" fill="#F5F5F5"/>
<path d="M273.573 133.838H254.187V137.663H273.573V133.838Z" fill="#E6E6E6"/>
<path d="M205.222 137.655H254.18V133.83H205.222V137.655Z" fill="#F5F5F5"/>
<path d="M273.573 154.747H254.187V158.572H273.573V154.747Z" fill="#E6E6E6"/>
<path d="M205.222 158.572H254.18V154.747H205.222V158.572Z" fill="#F5F5F5"/>
<path d="M266.588 219.696H270.165V131.744H266.588V219.696Z" fill="#E6E6E6"/>
<path d="M250.604 219.696H254.18V131.744H250.604V219.696Z" fill="#F5F5F5"/>
<path d="M205.222 219.696H208.799V131.744H205.222V219.696Z" fill="#F5F5F5"/>
<path d="M43.8721 219.696H80.4971L80.4971 148.641H43.8721L43.8721 219.696Z" fill="#E6E6E6"/>
<path d="M53.6491 219.696H43.8655V209.886H63.9025L53.6491 219.696Z" fill="#FAFAFA"/>
<path d="M143.722 219.696H180.347V148.641H143.722V219.696Z" fill="#E6E6E6"/>
<path d="M43.8722 216.314H152.264V148.634H43.8722L43.8722 216.314Z" fill="#FAFAFA"/>
<path d="M142.48 219.696H152.257V209.886H132.227L142.48 219.696Z" fill="#FAFAFA"/>
<path d="M51.4549 190.795H144.675V173.858H51.4549V190.795Z" fill="#F0F0F0"/>
<path d="M51.4549 211.349H144.675V194.412H51.4549V211.349Z" fill="#F0F0F0"/>
<path d="M126.96 175.67H69.1769C68.3618 175.67 67.5801 175.346 67.0037 174.77C66.4273 174.193 66.1035 173.412 66.1035 172.597V172.389H130.026V172.597C130.026 173.411 129.703 174.191 129.128 174.767C128.553 175.344 127.773 175.668 126.96 175.67Z" fill="#FAFAFA"/>
<path d="M51.4549 170.234H144.675V153.297H51.4549V170.234Z" fill="#F0F0F0"/>
<path d="M126.96 155.109H69.1769C68.3618 155.109 67.5801 154.786 67.0037 154.209C66.4273 153.633 66.1035 152.851 66.1035 152.036V151.828H130.026V152.036C130.026 152.85 129.703 153.631 129.128 154.207C128.553 154.783 127.773 155.108 126.96 155.109Z" fill="#FAFAFA"/>
<path d="M126.96 196.23H69.1769C68.3618 196.23 67.5801 195.907 67.0037 195.33C66.4273 194.754 66.1035 193.972 66.1035 193.157V192.949H130.026V193.157C130.026 193.971 129.703 194.752 129.128 195.328C128.553 195.904 127.773 196.229 126.96 196.23Z" fill="#FAFAFA"/>
<path d="M49.7033 79.8936L142.158 79.8936V19.3463L49.7033 19.3463L49.7033 79.8936Z" fill="#E6E6E6"/>
<path d="M46.885 79.8936L140.843 79.8936V19.3463L46.885 19.3463L46.885 79.8936Z" fill="#F0F0F0"/>
<path d="M49.7033 91.7705L142.158 91.7705V79.8865L49.7033 79.8865V91.7705Z" fill="#E6E6E6"/>
<path d="M42.1811 91.7705L136.139 91.7705V79.8865L42.1811 79.8865V91.7705Z" fill="#F0F0F0"/>
<path d="M136.891 75.9471V23.2979L50.8307 23.2979V75.9471H136.891Z" fill="#FAFAFA"/>
<path d="M117.484 75.9404L106.493 23.2979H89.3413L100.333 75.9404H117.484Z" fill="white"/>
<path d="M135.059 72.0148C135.096 72.0148 135.134 72.0073 135.168 71.9927C135.203 71.9781 135.234 71.9568 135.26 71.9299C135.287 71.903 135.307 71.8711 135.321 71.8362C135.335 71.8012 135.341 71.7638 135.341 71.7262V25.8679C135.342 25.8306 135.335 25.7935 135.321 25.7589C135.307 25.7243 135.286 25.6929 135.26 25.6665C135.234 25.6402 135.202 25.6194 135.168 25.6056C135.133 25.5918 135.096 25.5851 135.059 25.586C134.984 25.586 134.912 25.6157 134.859 25.6686C134.807 25.7214 134.777 25.7931 134.777 25.8679V71.7262C134.776 71.7638 134.783 71.8012 134.796 71.8362C134.81 71.8711 134.831 71.903 134.857 71.9299C134.883 71.9568 134.915 71.9781 134.949 71.9927C134.984 72.0073 135.021 72.0148 135.059 72.0148Z" fill="#F0F0F0"/>
<path d="M96.6488 75.9404L85.6572 23.2979H78.967L89.9586 75.9404H96.6488Z" fill="white"/>
<path d="M51.334 75.9471V23.2979H50.8307V75.9471H51.334Z" fill="#E6E6E6"/>
<path opacity="0.6" d="M45.9456 29.2502H138.4L138.763 24.8281H46.3079L45.9456 29.2502Z" fill="#EBEBEB"/>
<path opacity="0.6" d="M45.9456 31.7463H138.4L138.763 27.3242H46.3079L45.9456 31.7463Z" fill="#EBEBEB"/>
<path opacity="0.6" d="M45.9456 34.2357H138.4L138.763 29.8203H46.3079L45.9456 34.2357Z" fill="#EBEBEB"/>
<path opacity="0.6" d="M45.9456 36.7327H138.4L138.763 32.3105H46.3079L45.9456 36.7327Z" fill="#EBEBEB"/>
<path opacity="0.6" d="M45.9456 39.222H138.4L138.763 34.8066H46.3079L45.9456 39.222Z" fill="#EBEBEB"/>
<path opacity="0.6" d="M45.9456 41.718H138.4L138.763 37.2959H46.3079L45.9456 41.718Z" fill="#EBEBEB"/>
<path d="M64.4326 146.467H67.6267V110.842H64.4326V146.467Z" fill="#F5F5F5"/>
<path d="M64.8353 146.446H65.7412V110.821H64.8353V146.446Z" fill="#FAFAFA"/>
<path d="M66.1168 146.446H66.4724V110.821H66.1168V146.446Z" fill="#FAFAFA"/>
<path d="M77.8599 148.641H54.2127C54.2127 147.85 54.5266 147.093 55.0853 146.534C55.6441 145.975 56.4019 145.661 57.1921 145.661H74.8738C75.664 145.661 76.4218 145.975 76.9805 146.534C77.5393 147.093 77.8532 147.85 77.8532 148.641H77.8599Z" fill="#F0F0F0"/>
<path d="M60.2856 132.959C60.5289 132.957 60.7617 132.859 60.9338 132.687C61.1058 132.515 61.2032 132.283 61.205 132.039V108.707C61.205 108.464 61.1081 108.23 60.9357 108.057C60.7633 107.885 60.5295 107.788 60.2856 107.788V107.788C60.1644 107.787 60.0441 107.81 59.9318 107.856C59.8195 107.902 59.7173 107.97 59.6312 108.055C59.5452 108.14 59.4769 108.242 59.4302 108.354C59.3836 108.466 59.3596 108.586 59.3596 108.707V132.066C59.3683 132.306 59.4697 132.533 59.6424 132.699C59.8152 132.866 60.0457 132.959 60.2856 132.959Z" fill="#F0F0F0"/>
<path d="M51.7166 119.309H80.3361L77.0413 99.3125H55.0113L51.7166 119.309Z" fill="#E0E0E0"/>
<path d="M167.758 250C239.614 250 297.865 246.599 297.865 242.404C297.865 238.208 239.614 234.808 167.758 234.808C95.9023 234.808 37.6516 238.208 37.6516 242.404C37.6516 246.599 95.9023 250 167.758 250Z" fill="#F5F5F5"/>
<path d="M69.8671 98.8825L69.1978 98.9307L70.0892 111.306L70.7585 111.258L69.8671 98.8825Z" fill="#F82647"/>
<path d="M71.2132 117.646L70.5439 117.694L70.8795 122.353L71.5488 122.304L71.2132 117.646Z" fill="#F82647"/>
<path d="M226.615 174.576H82.9061C81.3065 174.547 79.7741 173.927 78.6044 172.835C77.4347 171.744 76.7106 170.258 76.5716 168.664L69.5123 70.6057C69.4467 69.8495 69.5401 69.0879 69.7867 68.3699C70.0333 67.652 70.4275 66.9937 70.944 66.4374C71.4605 65.8811 72.0877 65.4392 72.7854 65.14C73.483 64.8409 74.2356 64.6912 74.9947 64.7006H218.703C220.302 64.7292 221.833 65.3482 223.003 66.4385C224.172 67.5287 224.897 69.013 225.038 70.6057L232.097 168.664C232.162 169.42 232.069 170.182 231.822 170.9C231.576 171.619 231.182 172.277 230.665 172.834C230.149 173.391 229.522 173.834 228.824 174.134C228.127 174.433 227.374 174.584 226.615 174.576V174.576Z" fill="#F82647"/>
<path d="M227.165 174.576H83.4564C81.8568 174.547 80.3244 173.927 79.1547 172.835C77.985 171.744 77.2609 170.258 77.1219 168.664L70.0626 70.6057C69.9969 69.8495 70.0904 69.0879 70.337 68.3699C70.5836 67.652 70.9778 66.9937 71.4943 66.4374C72.0107 65.8811 72.638 65.4392 73.3357 65.14C74.0333 64.8409 74.7859 64.6912 75.5449 64.7006H219.253C220.852 64.7292 222.383 65.3482 223.553 66.4385C224.722 67.5287 225.447 69.013 225.588 70.6057L232.647 168.664C232.714 169.421 232.621 170.183 232.375 170.902C232.129 171.62 231.735 172.279 231.218 172.836C230.702 173.394 230.074 173.836 229.376 174.136C228.678 174.435 227.924 174.585 227.165 174.576V174.576Z" fill="#F82647"/>
<path opacity="0.5" d="M227.165 174.576H83.4564C81.8568 174.547 80.3244 173.927 79.1547 172.835C77.985 171.744 77.2609 170.258 77.1219 168.664L70.0626 70.6057C69.9969 69.8495 70.0904 69.0879 70.337 68.3699C70.5836 67.652 70.9778 66.9937 71.4943 66.4374C72.0107 65.8811 72.638 65.4392 73.3357 65.14C74.0333 64.8409 74.7859 64.6912 75.5449 64.7006H219.253C220.852 64.7292 222.383 65.3482 223.553 66.4385C224.722 67.5287 225.447 69.013 225.588 70.6057L232.647 168.664C232.714 169.421 232.621 170.183 232.375 170.902C232.129 171.62 231.735 172.279 231.218 172.836C230.702 173.394 230.074 173.836 229.376 174.136C228.678 174.435 227.924 174.585 227.165 174.576V174.576Z" fill="white"/>
<path d="M219.468 67.6533H75.7597H75.2765C71.606 67.9553 72.3575 73.545 76.0616 73.545H220.012C223.722 73.545 223.669 67.9553 219.951 67.6533H219.468Z" fill="#F82647"/>
<path d="M79.5039 70.6059C79.518 70.7789 79.4957 70.9529 79.4383 71.1167C79.381 71.2805 79.29 71.4305 79.1711 71.557C79.0522 71.6835 78.9081 71.7836 78.7482 71.8509C78.5882 71.9183 78.4159 71.9513 78.2423 71.9479C77.8776 71.9428 77.5277 71.8028 77.2601 71.555C76.9925 71.3072 76.826 70.9691 76.7929 70.6059C76.7789 70.4334 76.801 70.26 76.8579 70.0966C76.9149 69.9333 77.0053 69.7836 77.1234 69.6572C77.2416 69.5309 77.3848 69.4306 77.544 69.3628C77.7032 69.2951 77.8748 69.2614 78.0477 69.2638C78.4136 69.2673 78.7652 69.4065 79.0342 69.6545C79.3033 69.9024 79.4706 70.2415 79.5039 70.6059Z" fill="#FAFAFA"/>
<path d="M84.114 70.6059C84.1281 70.7789 84.1058 70.9529 84.0485 71.1167C83.9911 71.2805 83.9001 71.4305 83.7812 71.557C83.6623 71.6835 83.5183 71.7836 83.3583 71.8509C83.1983 71.9183 83.026 71.9513 82.8525 71.9479C82.4877 71.9428 82.1378 71.8028 81.8702 71.555C81.6026 71.3072 81.4361 70.9691 81.403 70.6059C81.389 70.4334 81.4111 70.26 81.468 70.0966C81.525 69.9333 81.6154 69.7836 81.7336 69.6572C81.8517 69.5309 81.995 69.4306 82.1541 69.3628C82.3133 69.2951 82.4849 69.2614 82.6579 69.2638C83.0237 69.2673 83.3753 69.4065 83.6443 69.6545C83.9134 69.9024 84.0808 70.2415 84.114 70.6059Z" fill="#FAFAFA"/>
<path d="M88.7173 70.606C88.7313 70.7784 88.7092 70.9519 88.6522 71.1152C88.5953 71.2786 88.5049 71.4283 88.3867 71.5546C88.2686 71.681 88.1253 71.7812 87.9662 71.849C87.807 71.9168 87.6354 71.9505 87.4624 71.9481C87.0973 71.9444 86.7466 71.805 86.4786 71.5569C86.2107 71.3088 86.0447 70.9698 86.013 70.606C85.9979 70.4333 86.0193 70.2594 86.0758 70.0956C86.1324 69.9318 86.2228 69.7817 86.3411 69.6551C86.4595 69.5285 86.6032 69.4283 86.7628 69.3609C86.9225 69.2935 87.0946 69.2604 87.2678 69.2639C87.6325 69.269 87.9825 69.409 88.2501 69.6568C88.5177 69.9046 88.6841 70.2427 88.7173 70.606V70.606Z" fill="#FAFAFA"/>
<path d="M223.353 164.792H85.8923C85.3116 164.782 84.7552 164.557 84.3311 164.161C83.907 163.764 83.6455 163.224 83.5973 162.645L77.7929 82.0068C77.7671 81.7301 77.8004 81.4511 77.8907 81.1882C77.9809 80.9254 78.1261 80.6847 78.3165 80.4823C78.5069 80.2798 78.7381 80.1202 78.995 80.014C79.2518 79.9078 79.5282 79.8574 79.806 79.8662H217.301C217.881 79.8742 218.437 80.0978 218.861 80.4935C219.286 80.8892 219.547 81.4287 219.596 82.0068L225.407 162.645C225.432 162.925 225.397 163.208 225.304 163.473C225.211 163.739 225.062 163.981 224.868 164.185C224.673 164.388 224.437 164.548 224.176 164.652C223.915 164.757 223.634 164.805 223.353 164.792V164.792Z" fill="white"/>
<path d="M165.43 134.072L163.188 102.99L156.411 98.9102H137.75L140.286 134.072H165.43Z" fill="white"/>
<path d="M165.43 134.394H140.286C140.203 134.396 140.122 134.366 140.061 134.309C140 134.253 139.963 134.175 139.957 134.092L137.428 98.93C137.424 98.8859 137.43 98.8415 137.446 98.7999C137.461 98.7583 137.484 98.7203 137.515 98.6884C137.544 98.6553 137.581 98.6286 137.621 98.6102C137.661 98.5917 137.705 98.5818 137.75 98.5811H156.411C156.47 98.5831 156.527 98.5992 156.579 98.628L163.356 102.708C163.402 102.734 163.44 102.771 163.469 102.815C163.497 102.86 163.513 102.91 163.517 102.963L165.745 134.045C165.75 134.09 165.744 134.136 165.729 134.179C165.714 134.222 165.69 134.261 165.658 134.293C165.629 134.325 165.593 134.35 165.554 134.367C165.515 134.385 165.473 134.394 165.43 134.394V134.394ZM140.602 133.723H165.074L162.873 103.157L156.351 99.232H138.099L140.602 133.723Z" fill="#F82647"/>
<path d="M163.189 102.99L156.411 98.9102L158.901 104.319L163.189 102.99Z" fill="#EBEBEB"/>
<path d="M158.901 104.64C158.839 104.64 158.778 104.622 158.726 104.589C158.674 104.556 158.632 104.509 158.605 104.453L156.116 99.044C156.087 98.9805 156.078 98.9095 156.092 98.841C156.105 98.7724 156.139 98.7097 156.19 98.6616C156.243 98.616 156.309 98.5883 156.379 98.5823C156.449 98.5763 156.519 98.5923 156.579 98.628L163.356 102.708C163.411 102.741 163.455 102.788 163.484 102.845C163.512 102.903 163.524 102.967 163.517 103.03C163.509 103.092 163.483 103.15 163.442 103.197C163.402 103.245 163.349 103.28 163.289 103.298L158.995 104.64H158.901ZM157.149 99.7285L159.075 103.922L162.43 102.896L157.149 99.7285Z" fill="#F82647"/>
<path d="M148.298 114.746C148.308 114.928 148.281 115.111 148.218 115.282C148.155 115.453 148.058 115.61 147.932 115.743C147.807 115.875 147.655 115.981 147.488 116.053C147.32 116.125 147.139 116.162 146.956 116.162C146.573 116.155 146.206 116.006 145.926 115.745C145.646 115.483 145.473 115.127 145.44 114.746C145.422 114.561 145.445 114.376 145.505 114.201C145.565 114.026 145.662 113.865 145.789 113.731C145.916 113.596 146.07 113.49 146.241 113.42C146.413 113.35 146.597 113.317 146.782 113.323C147.166 113.332 147.533 113.482 147.812 113.744C148.092 114.007 148.265 114.363 148.298 114.746Z" fill="#F82647"/>
<path d="M157.492 114.746C157.508 114.93 157.485 115.115 157.424 115.289C157.363 115.463 157.266 115.622 157.14 115.756C157.013 115.89 156.859 115.996 156.688 116.065C156.517 116.135 156.334 116.168 156.149 116.162C155.766 116.155 155.398 116.007 155.117 115.745C154.836 115.484 154.661 115.128 154.626 114.746C154.615 114.563 154.642 114.38 154.704 114.207C154.767 114.035 154.864 113.878 154.99 113.744C155.115 113.611 155.267 113.505 155.435 113.433C155.604 113.36 155.785 113.323 155.968 113.323C156.354 113.329 156.723 113.477 157.005 113.74C157.286 114.003 157.46 114.362 157.492 114.746V114.746Z" fill="#F82647"/>
<path d="M160.095 123.966C160.013 123.965 159.935 123.933 159.876 123.877C159.816 123.821 159.78 123.745 159.773 123.664C159.605 121.376 156.022 119.517 151.788 119.517C148.976 119.517 146.453 120.356 145.205 121.698C144.948 121.945 144.748 122.244 144.616 122.575C144.484 122.906 144.424 123.261 144.44 123.617C144.443 123.661 144.437 123.705 144.423 123.747C144.409 123.789 144.387 123.828 144.358 123.861C144.3 123.929 144.217 123.97 144.128 123.976C144.039 123.982 143.951 123.953 143.884 123.894C143.816 123.836 143.775 123.753 143.769 123.664C143.749 123.219 143.822 122.775 143.984 122.36C144.146 121.945 144.392 121.569 144.708 121.255C146.05 119.786 148.781 118.866 151.768 118.866C156.418 118.866 160.209 120.953 160.397 123.617C160.4 123.659 160.394 123.702 160.38 123.742C160.367 123.782 160.345 123.819 160.317 123.851C160.289 123.883 160.255 123.909 160.217 123.927C160.179 123.946 160.137 123.957 160.095 123.959V123.966Z" fill="#F82647"/>
<path d="M143.044 111.874C142.962 111.873 142.884 111.842 142.823 111.787C142.762 111.725 142.727 111.642 142.727 111.556C142.727 111.469 142.762 111.386 142.823 111.324L144.252 109.787C144.313 109.728 144.395 109.695 144.48 109.695C144.565 109.695 144.647 109.728 144.708 109.787C144.738 109.817 144.762 109.853 144.778 109.892C144.795 109.931 144.803 109.973 144.803 110.016C144.803 110.058 144.795 110.1 144.778 110.139C144.762 110.178 144.738 110.214 144.708 110.244L143.279 111.78C143.248 111.811 143.211 111.835 143.171 111.851C143.131 111.867 143.088 111.875 143.044 111.874V111.874Z" fill="#F82647"/>
<path d="M159.424 111.874C159.343 111.87 159.265 111.84 159.203 111.787L157.559 110.25C157.528 110.22 157.503 110.184 157.486 110.145C157.469 110.105 157.46 110.062 157.46 110.019C157.46 109.976 157.469 109.933 157.486 109.893C157.503 109.853 157.528 109.817 157.559 109.787C157.62 109.728 157.702 109.695 157.787 109.695C157.872 109.695 157.954 109.728 158.015 109.787L159.659 111.324C159.689 111.354 159.713 111.389 159.729 111.429C159.745 111.468 159.754 111.51 159.754 111.552C159.754 111.595 159.745 111.637 159.729 111.676C159.713 111.715 159.689 111.75 159.659 111.78C159.595 111.84 159.511 111.873 159.424 111.874V111.874Z" fill="#F82647"/>
<path d="M135.723 141.017H137.24L139.427 143.929L139.219 141.017H140.749L141.125 146.277H139.575L137.401 143.385L137.609 146.277H136.079L135.723 141.017Z" fill="#F82647"/>
<path d="M141.809 143.647C141.758 143.29 141.782 142.926 141.882 142.579C141.981 142.232 142.153 141.91 142.386 141.634C142.641 141.384 142.947 141.19 143.282 141.066C143.618 140.942 143.976 140.891 144.332 140.916C145.089 140.875 145.831 141.128 146.406 141.621C146.932 142.145 147.237 142.851 147.258 143.594C147.313 144.106 147.244 144.624 147.057 145.104C146.883 145.49 146.592 145.812 146.225 146.023C145.784 146.259 145.288 146.373 144.789 146.352C144.275 146.368 143.765 146.272 143.292 146.07C142.879 145.871 142.53 145.559 142.286 145.171C141.998 144.713 141.834 144.188 141.809 143.647V143.647ZM143.44 143.647C143.433 144.059 143.566 144.461 143.816 144.788C143.921 144.904 144.049 144.995 144.193 145.055C144.337 145.115 144.492 145.143 144.648 145.137C144.797 145.148 144.946 145.122 145.082 145.062C145.219 145.003 145.339 144.911 145.433 144.795C145.626 144.428 145.689 144.008 145.614 143.6C145.617 143.206 145.484 142.822 145.238 142.513C145.131 142.4 145 142.311 144.856 142.252C144.711 142.193 144.556 142.165 144.4 142.171C144.254 142.165 144.108 142.193 143.975 142.254C143.842 142.314 143.725 142.406 143.635 142.52C143.438 142.866 143.369 143.27 143.44 143.661V143.647Z" fill="#F82647"/>
<path d="M150.412 141.017H152.828C153.226 141.005 153.623 141.071 153.995 141.212C154.29 141.335 154.552 141.526 154.76 141.769C154.972 142.015 155.133 142.3 155.237 142.607C155.346 142.938 155.413 143.28 155.438 143.627C155.49 144.066 155.455 144.51 155.337 144.936C155.245 145.231 155.081 145.498 154.861 145.714C154.677 145.909 154.446 146.052 154.19 146.13C153.878 146.221 153.555 146.271 153.23 146.278H150.821L150.412 141.017ZM152.123 142.212L152.331 145.084H152.727C152.972 145.1 153.217 145.061 153.445 144.97C153.595 144.882 153.706 144.741 153.754 144.574C153.831 144.276 153.849 143.966 153.808 143.661C153.82 143.252 153.695 142.85 153.452 142.52C153.327 142.408 153.181 142.322 153.021 142.269C152.862 142.216 152.693 142.196 152.526 142.212H152.123Z" fill="#F82647"/>
<path d="M159.337 145.405H157.491L157.297 146.277H155.639L157.236 141.017H159.035L161.39 146.277H159.686L159.337 145.405ZM158.914 144.271L158.203 142.379L157.76 144.271H158.914Z" fill="#F82647"/>
<path d="M160.625 141.017H165.564L165.658 142.318H164.001L164.282 146.277H162.658L162.377 142.318H160.719L160.625 141.017Z" fill="#F82647"/>
<path d="M169.349 145.405H167.503L167.309 146.277H165.651L167.248 141.017H169.02L171.368 146.277H169.671L169.349 145.405ZM168.926 144.271L168.208 142.379L167.758 144.271H168.926Z" fill="#F82647"/>
<path d="M237.338 79.2352C237.935 78.9332 238.68 78.5642 239.31 78.1817C239.941 77.7992 240.653 77.4301 241.324 77.0275C242.632 76.2156 243.961 75.417 245.216 74.5313C247.736 72.8068 250.098 70.8621 252.275 68.7201C252.55 68.4651 252.792 68.1833 253.053 67.9082L253.436 67.4988L253.624 67.2975L253.718 67.1902C253.624 67.3714 253.718 67.3177 253.718 67.1432C253.776 66.9036 253.81 66.6584 253.818 66.4118C253.803 64.985 253.639 63.5636 253.328 62.1708C252.731 59.1646 251.825 56.0644 250.933 53.0314L253.536 51.8906C255.18 54.8007 256.552 57.8555 257.636 61.0167C258.245 62.725 258.633 64.5043 258.791 66.3111C258.832 66.8729 258.814 67.4374 258.737 67.9954C258.637 68.7845 258.357 69.5399 257.918 70.2031L257.804 70.3575L257.717 70.4648L257.616 70.5923L257.408 70.8473L256.992 71.3506C256.717 71.6794 256.449 72.0216 256.153 72.337C253.859 74.8835 251.299 77.178 248.517 79.1815C247.175 80.1747 245.752 81.1275 244.296 81.9932C243.578 82.4293 242.847 82.8454 242.102 83.2547C241.357 83.664 240.632 84.0398 239.773 84.4424L237.338 79.2352Z" fill="#FFB573"/>
<path d="M231.365 236.995C231.868 236.982 232.367 236.915 232.855 236.794C232.88 236.786 232.902 236.772 232.92 236.754C232.937 236.735 232.95 236.712 232.956 236.686C232.959 236.661 232.955 236.634 232.944 236.611C232.934 236.587 232.917 236.567 232.895 236.552C232.701 236.425 230.996 235.324 230.339 235.619C230.266 235.653 230.203 235.706 230.157 235.772C230.111 235.838 230.084 235.915 230.077 235.995C230.051 236.122 230.057 236.253 230.096 236.376C230.135 236.5 230.205 236.611 230.298 236.7C230.607 236.924 230.986 237.029 231.365 236.995V236.995ZM232.473 236.606C231.5 236.8 230.761 236.767 230.46 236.505C230.399 236.443 230.355 236.367 230.332 236.284C230.308 236.201 230.306 236.113 230.325 236.029C230.328 235.993 230.34 235.959 230.36 235.929C230.38 235.9 230.407 235.876 230.439 235.861C230.795 235.707 231.781 236.203 232.473 236.606Z" fill="#F82647"/>
<path d="M232.848 236.794H232.916C232.935 236.782 232.952 236.765 232.963 236.745C232.975 236.725 232.982 236.703 232.983 236.68C232.983 236.606 232.983 234.989 232.365 234.452C232.291 234.381 232.202 234.327 232.104 234.296C232.007 234.264 231.903 234.256 231.802 234.271C231.696 234.272 231.593 234.309 231.512 234.376C231.43 234.443 231.373 234.536 231.352 234.64C231.224 235.311 232.244 236.485 232.781 236.794C232.803 236.8 232.826 236.8 232.848 236.794V236.794ZM231.889 234.519C231.998 234.519 232.103 234.56 232.184 234.633C232.538 235.155 232.721 235.774 232.707 236.405C232.171 235.975 231.533 235.063 231.614 234.68C231.614 234.62 231.661 234.539 231.828 234.519H231.889Z" fill="#F82647"/>
<path d="M232.325 62.4531C231.654 65.8083 230.312 72.5186 232.627 74.7666C232.627 74.7666 231.714 78.1217 225.521 78.1217C218.703 78.1217 222.266 74.7666 222.266 74.7666C225.984 73.8808 225.883 71.1229 225.239 68.526L232.325 62.4531Z" fill="#FFB573"/>
<path d="M220.958 76.1082C219.891 76.2558 220.803 73.4845 221.233 73.1959C222.239 72.5249 235.23 71.5922 235.143 73.1959C235.09 73.867 234.767 75.209 234.204 75.6519C233.64 76.0948 230.298 74.7125 220.958 76.1082Z" fill="#394955"/>
<path d="M223.078 75.1556C222.226 75.4442 222.307 72.6527 222.595 72.3172C223.266 71.5388 233.781 68.8412 234.09 70.3645C234.211 71.0355 234.271 72.3776 233.909 72.854C233.546 73.3304 230.46 72.5453 223.078 75.1556Z" fill="#394955"/>
<path d="M219.166 56.4401C219.124 56.442 219.082 56.4338 219.043 56.4163C219.005 56.3989 218.971 56.3725 218.945 56.3395C218.74 56.0754 218.476 55.8632 218.174 55.7198C217.872 55.5765 217.541 55.506 217.207 55.5141C217.172 55.5188 217.136 55.5164 217.102 55.507C217.068 55.4976 217.037 55.4815 217.009 55.4595C216.981 55.4376 216.959 55.4103 216.942 55.3794C216.925 55.3484 216.915 55.3143 216.911 55.2793C216.906 55.2101 216.927 55.1415 216.971 55.0877C217.014 55.0339 217.077 54.9991 217.146 54.9907C217.569 54.9692 217.99 55.05 218.374 55.2265C218.759 55.4029 219.095 55.6696 219.354 56.004C219.399 56.0584 219.421 56.1284 219.414 56.1988C219.408 56.2691 219.374 56.3341 219.32 56.3798C219.275 56.4125 219.222 56.4332 219.166 56.4401V56.4401Z" fill="#394955"/>
<path d="M217.864 59.7217C217.56 60.7922 217.108 61.8152 216.522 62.7615C216.768 62.903 217.042 62.9889 217.325 63.0132C217.608 63.0376 217.893 62.9997 218.16 62.9024L217.864 59.7217Z" fill="#FF5652"/>
<path d="M218.193 58.91C218.24 59.3596 218.032 59.7488 217.737 59.7757C217.442 59.8025 217.166 59.467 217.126 59.0107C217.086 58.5544 217.287 58.1719 217.576 58.1451C217.864 58.1182 218.146 58.4537 218.193 58.91Z" fill="#394955"/>
<path d="M217.71 58.1582L216.596 57.9502C216.596 57.9502 217.233 58.742 217.71 58.1582Z" fill="#394955"/>
<path d="M239.357 236.666H233.734L234.177 223.648H239.8L239.357 236.666Z" fill="#FFB573"/>
<path d="M233.291 236.016H239.606C239.714 236.013 239.82 236.051 239.903 236.121C239.986 236.192 240.04 236.29 240.055 236.398L240.773 241.391C240.787 241.517 240.775 241.645 240.736 241.766C240.697 241.887 240.633 241.998 240.548 242.093C240.463 242.187 240.359 242.263 240.243 242.314C240.127 242.365 240.001 242.391 239.874 242.391C237.673 242.357 236.613 242.223 233.835 242.223C232.124 242.223 229.627 242.404 227.272 242.404C224.917 242.404 224.782 240.069 225.769 239.861C230.171 238.908 230.869 237.606 232.352 236.358C232.616 236.139 232.948 236.018 233.291 236.016V236.016Z" fill="#394955"/>
<g opacity="0.2">
<path d="M239.8 223.648H234.177L233.949 230.359H239.572L239.8 223.648Z" fill="#2D2942"/>
</g>
<path d="M216.992 82.5368C213.551 81.1989 210.18 79.6871 206.893 78.0073C203.497 76.3481 200.262 74.378 197.23 72.1223C196.42 71.4877 195.653 70.7995 194.935 70.0623C194.747 69.861 194.559 69.6731 194.378 69.4382C194.165 69.1982 193.968 68.9449 193.787 68.6799C193.293 67.959 192.984 67.1268 192.888 66.2575C192.814 65.4334 192.927 64.6032 193.217 63.8284C193.45 63.2056 193.768 62.6184 194.163 62.0837C194.811 61.1973 195.577 60.4027 196.438 59.7216C197.958 58.511 199.6 57.4608 201.337 56.5879C202.169 56.145 203.014 55.7491 203.873 55.3801C204.732 55.011 205.578 54.6621 206.497 54.3467L207.685 56.9302C204.759 58.7755 201.726 60.8087 199.498 63.0768C198.999 63.582 198.56 64.1426 198.189 64.7477C197.867 65.2778 197.874 65.6737 197.928 65.6402C197.981 65.6066 197.928 65.6402 198.022 65.7073L198.29 65.9958C198.391 66.1166 198.532 66.2374 198.659 66.3649C199.228 66.888 199.831 67.3723 200.464 67.8143C201.849 68.7951 203.293 69.6914 204.786 70.4984C206.296 71.3439 207.852 72.1425 209.436 72.9074C212.603 74.424 215.878 75.8801 219.092 77.2088L216.992 82.5368Z" fill="#FFB573"/>
<path d="M209.362 55.1257L210.288 53.1126L206.047 51.6699C206.047 51.6699 204.705 55.6357 206.296 57.4609C206.96 57.3563 207.588 57.0881 208.124 56.6805C208.659 56.2729 209.085 55.7386 209.362 55.1257Z" fill="#FFB573"/>
<path d="M210.268 48.7571L206.893 47.7773L206.047 51.6425L210.268 53.1121V48.7571Z" fill="#FFB573"/>
<path d="M253.885 53.3066L254.375 48.6094L250.027 49.6562C250.027 49.6562 249.96 54.0716 252.261 54.7695L253.885 53.3066Z" fill="#FFB573"/>
<path d="M252.282 45.3018L249.443 46.6237L250.027 49.6232L254.375 48.5965L252.282 45.3018Z" fill="#FFB573"/>
<path d="M233.211 55.8633C233.419 61.4396 233.62 63.7949 231.104 66.9152C227.312 71.6125 220.421 70.6395 218.556 65.2377C216.878 60.3794 216.824 52.0787 222.031 49.3409C223.176 48.7322 224.458 48.4261 225.754 48.4517C227.05 48.4773 228.319 48.8337 229.439 49.4871C230.559 50.1405 231.493 51.0692 232.153 52.1851C232.813 53.301 233.177 54.5672 233.211 55.8633V55.8633Z" fill="#FFB573"/>
<path d="M230.782 66.9091C236.257 64.5404 239.854 59.5278 238.337 51.7572C236.881 44.302 231.849 43.5639 229.768 45.1073C227.688 46.6506 222.501 44.349 219.388 46.966C214.019 51.5089 219.092 56.3605 221.75 59.2929C223.333 62.5541 225.413 69.2242 230.782 66.9091Z" fill="#394955"/>
<path d="M228.507 50.4214C229.175 51.2783 230.079 51.9208 231.108 52.2696C232.137 52.6185 233.246 52.6584 234.297 52.3845C235.348 52.1105 236.296 51.5347 237.024 50.7281C237.752 49.9215 238.228 48.9194 238.393 47.8455C238.558 46.7716 238.404 45.6729 237.952 44.6851C237.5 43.6973 236.768 42.8636 235.847 42.2869C234.926 41.7102 233.857 41.4157 232.771 41.4398C231.684 41.464 230.629 41.8057 229.735 42.4227C228.512 43.3208 227.695 44.6679 227.465 46.1678C227.235 47.6677 227.609 49.1977 228.507 50.4214Z" fill="#F82647"/>
<path d="M229.929 45.6302C229.144 41.1342 233.392 37.6717 239.082 39.3426C244.773 41.0135 241.766 46.0529 240.592 50.0791C239.418 54.1053 242.491 57.9436 243.766 54.877C245.041 51.8104 242.894 50.8508 242.894 50.8508C242.894 50.8508 248.933 52.4143 243.323 59.2253C237.713 66.0363 232.634 58.514 234.009 54.0785C235.123 50.5153 230.674 49.8778 229.929 45.6302Z" fill="#394955"/>
<path d="M224.246 47.3277C221.649 45.9857 217.254 44.8785 214.751 49.0925C213.57 51.1056 214.026 53.7898 214.026 53.7898L221.669 54.293L224.246 47.3277Z" fill="#394955"/>
<path d="M213.127 52.4609C213.082 52.4574 213.04 52.4366 213.01 52.4028C212.98 52.369 212.964 52.3249 212.966 52.2797C212.966 52.1656 213.16 49.4681 214.791 47.7771C218.73 43.6838 223.347 47.106 224.662 48.2132C224.69 48.2432 224.706 48.2825 224.708 48.3237C224.709 48.3649 224.695 48.4051 224.668 48.4366C224.642 48.4681 224.605 48.4887 224.564 48.4946C224.523 48.5004 224.481 48.491 224.447 48.4682C223.179 47.3812 218.763 44.1266 215.053 48.0052C213.509 49.609 213.321 52.273 213.321 52.2998C213.321 52.3237 213.315 52.3472 213.304 52.3688C213.294 52.3903 213.279 52.4093 213.261 52.4245C213.242 52.4398 213.221 52.4509 213.198 52.4572C213.175 52.4635 213.15 52.4647 213.127 52.4609Z" fill="#394955"/>
<path d="M222.682 59.0509C222.652 60.1066 222.261 61.1201 221.575 61.9229C220.649 63.01 219.562 62.4731 219.34 61.2519C219.119 60.1715 219.34 58.2993 220.508 57.6484C221.676 56.9975 222.696 57.8296 222.682 59.0509Z" fill="#FFB573"/>
<path d="M221.474 110.13C221.474 110.13 221.837 149.15 225.219 170.892C227.957 188.453 233.009 229.064 233.009 229.064H240.679C240.679 229.064 241.424 189.855 240.008 172.489C236.499 128.536 245.564 120.316 238.25 110.13H221.474Z" fill="#394955"/>
<path opacity="0.1" d="M221.474 110.13C221.474 110.13 221.837 149.15 225.219 170.892C227.957 188.453 233.009 229.064 233.009 229.064H240.679C240.679 229.064 241.424 189.855 240.008 172.489C236.499 128.536 245.564 120.316 238.25 110.13H221.474Z" fill="white"/>
<path opacity="0.3" d="M225.507 127.831C228.191 139.608 226.051 158.155 224.581 166.322C223.024 153.921 222.239 137.85 221.85 126.06C223.239 123.819 224.554 123.671 225.507 127.831Z" fill="#2D2942"/>
<path d="M231.963 229.212H241.726L242.236 225.789L231.909 225.44L231.963 229.212Z" fill="#F82647"/>
<path d="M234.747 77.1691C235.667 75.3439 240.605 74.1964 243.303 74.2032L245.316 83.1682C245.316 83.1682 239.948 91.1467 237.707 90.3012C235.069 89.3282 232.781 81.1081 234.747 77.1691Z" fill="#F82647"/>
<path opacity="0.4" d="M234.747 77.1691C235.667 75.3439 240.605 74.1964 243.303 74.2032L245.316 83.1682C245.316 83.1682 239.948 91.1467 237.707 90.3012C235.069 89.3282 232.781 81.1081 234.747 77.1691Z" fill="#2D2942"/>
<path d="M229.057 227.017C229.068 226.998 229.074 226.976 229.074 226.954C229.074 226.931 229.068 226.909 229.057 226.89C229.044 226.864 229.024 226.843 228.999 226.83C228.973 226.816 228.944 226.812 228.916 226.816C228.634 226.863 226.151 227.252 225.816 227.963C225.78 228.028 225.761 228.101 225.761 228.175C225.761 228.249 225.78 228.322 225.816 228.386C225.873 228.492 225.956 228.583 226.057 228.649C226.157 228.716 226.273 228.757 226.393 228.769C227.205 228.849 228.406 227.722 229.01 227.037L229.057 227.017ZM226.078 228.051C226.306 227.675 227.594 227.326 228.574 227.145C227.688 228.044 226.91 228.547 226.453 228.487C226.374 228.479 226.299 228.452 226.233 228.407C226.168 228.362 226.114 228.302 226.078 228.232C226.063 228.206 226.055 228.177 226.055 228.148C226.055 228.119 226.063 228.09 226.078 228.064C226.078 228.064 226.071 228.057 226.078 228.051Z" fill="#F82647"/>
<path d="M234.915 224.635L229.775 226.923L227.487 222.152L224.494 215.911L224.138 215.187L229.279 212.898L229.674 213.717L232.573 219.763L234.915 224.635Z" fill="#FFB573"/>
<path opacity="0.2" d="M232.573 219.763L227.487 222.152L224.494 215.911L229.675 213.717L232.573 219.763Z" fill="#2D2942"/>
<path d="M215.448 110.13C215.448 110.13 199.028 150.982 203.477 170.174C207.503 187.547 225.286 220.448 225.286 220.448L232.177 216.999C232.177 216.999 221.179 177.28 219.991 168.651C217.67 151.875 232.587 128.167 232.587 110.13H215.448Z" fill="#394955"/>
<path opacity="0.1" d="M215.448 110.13C215.448 110.13 199.028 150.982 203.477 170.174C207.503 187.547 225.286 220.448 225.286 220.448L232.177 216.999C232.177 216.999 221.179 177.28 219.991 168.651C217.67 151.875 232.587 128.167 232.587 110.13H215.448Z" fill="white"/>
<path d="M228.862 226.205L233.962 222.494C234.048 222.427 234.156 222.394 234.265 222.401C234.374 222.409 234.477 222.456 234.553 222.535L238.076 226.152C238.161 226.246 238.226 226.357 238.265 226.478C238.305 226.599 238.318 226.727 238.305 226.854C238.292 226.981 238.252 227.103 238.188 227.213C238.124 227.324 238.038 227.419 237.935 227.494C236.13 228.755 235.197 229.279 232.956 230.909C231.573 231.916 228.822 234.137 226.916 235.526C225.011 236.915 223.561 235.103 224.232 234.358C227.238 231.003 227.869 228.923 228.339 227.037C228.412 226.708 228.597 226.414 228.862 226.205V226.205Z" fill="#394955"/>
<path d="M224.843 221.904L233.721 217.844L232.587 214.228L223.078 218.562L224.843 221.904Z" fill="#F82647"/>
<path d="M219.804 76.7392C219.072 74.8335 212.657 72.713 209.436 72.042L208.02 82.5906C208.02 82.5906 213.281 90.1465 215.583 89.5224C218.307 88.7843 221.387 80.8258 219.804 76.7392Z" fill="#F82647"/>
<path opacity="0.4" d="M219.804 76.7392C219.072 74.8335 212.657 72.713 209.436 72.042L208.02 82.5906C208.02 82.5906 213.281 90.1465 215.583 89.5224C218.307 88.7843 221.387 80.8258 219.804 76.7392Z" fill="#2D2942"/>
<path d="M212.764 76.2092C212.764 76.2092 210.08 77.1487 215.448 110.13H238.264C237.881 100.843 237.868 95.1122 242.29 76.0415C239.093 75.3819 235.852 74.9557 232.593 74.7665C229.144 74.5179 225.682 74.5179 222.233 74.7665C217.81 75.1557 212.764 76.2092 212.764 76.2092Z" fill="#F82647"/>
<path opacity="0.4" d="M212.764 76.2092C212.764 76.2092 210.08 77.1487 215.448 110.13H238.264C237.881 100.843 237.868 95.1122 242.29 76.0415C239.093 75.3819 235.852 74.9557 232.593 74.7665C229.144 74.5179 225.682 74.5179 222.233 74.7665C217.81 75.1557 212.764 76.2092 212.764 76.2092Z" fill="#2D2942"/>
<path d="M238.619 108.795L239.646 110.808C239.727 110.969 239.539 111.13 239.277 111.13H215.335C215.126 111.13 214.959 111.029 214.945 110.895L214.737 108.882C214.737 108.741 214.905 108.62 215.126 108.62H238.217C238.293 108.608 238.372 108.618 238.443 108.649C238.515 108.68 238.576 108.73 238.619 108.795Z" fill="#F82647"/>
<path opacity="0.3" d="M238.619 108.795L239.646 110.808C239.727 110.969 239.539 111.13 239.277 111.13H215.335C215.126 111.13 214.959 111.029 214.945 110.895L214.737 108.882C214.737 108.741 214.905 108.62 215.126 108.62H238.217C238.293 108.608 238.372 108.618 238.443 108.649C238.515 108.68 238.576 108.73 238.619 108.795Z" fill="white"/>
<path d="M235.532 111.392H236.15C236.277 111.392 236.371 111.325 236.358 111.251L236.069 108.567C236.069 108.486 235.955 108.426 235.834 108.426H235.21C235.09 108.426 234.996 108.486 235.002 108.567L235.291 111.251C235.284 111.311 235.391 111.392 235.532 111.392Z" fill="#394955"/>
<path d="M220.508 111.392H221.125C221.246 111.392 221.34 111.325 221.333 111.251L221.045 108.567C221.045 108.486 220.931 108.426 220.803 108.426H220.186C220.058 108.426 219.971 108.486 219.978 108.567L220.266 111.251C220.273 111.311 220.381 111.392 220.508 111.392Z" fill="#394955"/>
</svg>
