<svg width="377" height="251" viewBox="0 0 377 251" fill="none" xmlns="http://www.w3.org/2000/svg">
<path d="M338.801 231.468H313.86V231.657H338.801V231.468Z" fill="#EBEBEB"/>
<path d="M249.428 233.516H242.884V233.704H249.428V233.516Z" fill="#EBEBEB"/>
<path d="M313.106 224.479H298.655V224.668H313.106V224.479Z" fill="#EBEBEB"/>
<path d="M72.0299 225.745H39.5054V225.933H72.0299V225.745Z" fill="#EBEBEB"/>
<path d="M83.5064 225.745H78.7395V225.933H83.5064V225.745Z" fill="#EBEBEB"/>
<path d="M169.551 228.922H99.0044V229.111H169.551V228.922Z" fill="#EBEBEB"/>
<path d="M376.529 219.351H0V219.539H376.529V219.351Z" fill="#EBEBEB"/>
<path d="M306.329 55.4937H276.553C275.88 55.4937 275.214 55.6264 274.592 55.8842C273.97 56.142 273.405 56.5199 272.93 56.9962C272.454 57.4725 272.077 58.0379 271.82 58.66C271.563 59.2822 271.431 59.9489 271.432 60.622V79.7948C271.431 80.4679 271.563 81.1346 271.82 81.7568C272.077 82.3789 272.454 82.9443 272.93 83.4206C273.405 83.897 273.97 84.2748 274.592 84.5326C275.214 84.7905 275.88 84.9232 276.553 84.9232H285.115L288.941 89.9235C289.235 90.3076 289.613 90.6188 290.047 90.8331C290.48 91.0473 290.958 91.1587 291.441 91.1587C291.925 91.1587 292.402 91.0473 292.835 90.8331C293.269 90.6188 293.647 90.3076 293.941 89.9235L297.767 84.9232H306.329C307.002 84.9232 307.669 84.7905 308.29 84.5326C308.912 84.2748 309.477 83.897 309.953 83.4206C310.428 82.9443 310.805 82.3789 311.062 81.7568C311.319 81.1346 311.451 80.4679 311.45 79.7948V60.622C311.451 59.9489 311.319 59.2822 311.062 58.66C310.805 58.0379 310.428 57.4725 309.953 56.9962C309.477 56.5199 308.912 56.142 308.29 55.8842C307.669 55.6264 307.002 55.4937 306.329 55.4937V55.4937Z" fill="#E0E0E0"/>
<path d="M285.04 72.2566C284.399 71.6851 283.881 70.9905 283.515 70.2142C283.148 69.4379 282.942 68.5959 282.909 67.7383C282.876 67.1929 282.961 66.647 283.155 66.1367C283.35 65.6263 283.651 65.1632 284.039 64.778C284.426 64.3928 284.891 64.0943 285.402 63.9023C285.914 63.7103 286.46 63.6291 287.005 63.6642C289.309 63.6642 290.093 64.7336 291.441 66.2773C292.789 64.7712 293.572 63.6642 295.876 63.6642C296.421 63.6291 296.968 63.7103 297.479 63.9023C297.991 64.0943 298.455 64.3928 298.843 64.778C299.23 65.1632 299.531 65.6263 299.726 66.1367C299.921 66.647 300.005 67.1929 299.973 67.7383C299.939 68.5959 299.733 69.4379 299.367 70.2142C299.001 70.9905 298.482 71.6851 297.842 72.2566L291.441 78.6275L285.04 72.2566Z" fill="white"/>
<path d="M75.9535 206.248C75.2043 205.581 74.5959 204.771 74.164 203.866C73.7321 202.961 73.4853 201.979 73.4383 200.977C73.3969 200.333 73.4937 199.689 73.7221 199.086C73.9504 198.483 74.3052 197.936 74.7624 197.482C75.2196 197.028 75.7687 196.676 76.3729 196.452C76.9771 196.227 77.6224 196.134 78.2654 196.18C80.9764 196.18 81.9026 197.437 83.4916 199.26C85.0805 197.437 86.0068 196.18 88.7178 196.18C89.3608 196.134 90.0061 196.227 90.6103 196.452C91.2144 196.676 91.7636 197.028 92.2208 197.482C92.678 197.936 93.0327 198.483 93.2611 199.086C93.4895 199.689 93.5863 200.333 93.5449 200.977C93.4978 201.979 93.2511 202.961 92.8192 203.866C92.3873 204.771 91.7789 205.581 91.0297 206.248L83.4991 213.779L75.9535 206.248Z" fill="#E0E0E0"/>
<path d="M92.9802 214.735C92.5267 214.323 92.1599 213.824 91.9013 213.268C91.6428 212.712 91.4975 212.11 91.4741 211.497C91.4508 211.104 91.5113 210.711 91.6517 210.344C91.7922 209.976 92.0092 209.643 92.2885 209.366C92.5677 209.089 92.9028 208.874 93.2713 208.737C93.6399 208.599 94.0336 208.541 94.4261 208.568C96.0828 208.568 96.6853 209.321 97.6191 210.443C98.5905 209.336 99.1252 208.568 100.812 208.568C101.205 208.541 101.598 208.599 101.967 208.737C102.335 208.874 102.67 209.089 102.95 209.366C103.229 209.643 103.446 209.976 103.586 210.344C103.727 210.711 103.787 211.104 103.764 211.497C103.741 212.11 103.595 212.712 103.337 213.268C103.078 213.824 102.711 214.323 102.258 214.735L97.6492 219.321L92.9802 214.735Z" fill="#EBEBEB"/>
<path d="M286.327 0.874023H252.169C250.609 0.874023 249.113 1.49367 248.01 2.59664C246.907 3.69962 246.287 5.19556 246.287 6.7554V28.7522C246.287 30.3128 246.907 31.8095 248.01 32.9137C249.112 34.0178 250.608 34.6391 252.169 34.6411H261.996L266.379 40.3719C266.716 40.8136 267.15 41.1717 267.647 41.4181C268.145 41.6646 268.693 41.7929 269.248 41.7929C269.803 41.7929 270.351 41.6646 270.849 41.4181C271.347 41.1717 271.781 40.8136 272.117 40.3719L276.508 34.6411H286.297C287.859 34.6411 289.357 34.0207 290.461 32.9163C291.566 31.8119 292.186 30.3141 292.186 28.7522V6.7554C292.186 5.19947 291.57 3.70694 290.472 2.60461C289.374 1.50228 287.883 0.88 286.327 0.874023V0.874023Z" fill="#F5F5F5"/>
<path d="M258.525 26.599H262.396V12.8481H257.877L258.525 26.599Z" fill="#E0E0E0"/>
<path d="M280.341 14.9711C280.145 14.3611 279.528 13.0809 278.94 12.8249C277.246 12.0718 273.533 12.3053 270.25 12.7345C270.385 12.471 270.498 12.2375 270.566 12.0718C270.959 11.0811 271.191 10.0335 271.251 8.96924C271.199 8.21619 270.86 6.6197 270.25 6.22811C270.009 6.1092 269.743 6.04736 269.474 6.04736C269.205 6.04736 268.94 6.1092 268.699 6.22811C268.043 6.9134 268.495 9.06714 268.239 9.9934C267.662 11.2494 266.901 12.4119 265.98 13.4424C264.828 13.6533 264.097 13.8114 264.097 13.8114V25.9582C264.097 25.9582 274.015 28.6542 277.208 27.7806C278.436 27.4493 279.015 25.3181 279.467 24.1283C280.288 21.9896 281.041 17.17 280.341 14.9711Z" fill="#E0E0E0"/>
<path d="M199.936 19.9869C199.762 17.8314 198.783 15.8204 197.194 14.3539C195.605 12.8874 193.522 12.0728 191.359 12.0723H185.169C183.006 12.0728 180.923 12.8874 179.334 14.3539C177.745 15.8204 176.766 17.8314 176.592 19.9869L176.072 25.2583H200.456L199.936 19.9869Z" fill="#EBEBEB"/>
<path d="M188.265 12.0721C191.471 12.0721 194.071 9.47264 194.071 6.26604C194.071 3.05943 191.471 0.459961 188.265 0.459961C185.058 0.459961 182.458 3.05943 182.458 6.26604C182.458 9.47264 185.058 12.0721 188.265 12.0721Z" fill="#EBEBEB"/>
<path d="M73.0466 100.926C72.153 100.923 71.286 101.229 70.5916 101.792L65.9302 98.0262C66.2097 97.4865 66.3544 96.887 66.3519 96.2791C66.3518 95.3971 66.0517 94.5413 65.5008 93.8524C64.9499 93.1636 64.181 92.6826 63.3205 92.4887C62.4601 92.2947 61.5592 92.3993 60.7661 92.7852C59.9729 93.1711 59.3346 93.8154 58.9562 94.6121C58.5777 95.4089 58.4816 96.3107 58.6836 97.1693C58.8856 98.0279 59.3737 98.7922 60.0677 99.3367C60.7617 99.8811 61.6203 100.173 62.5024 100.165C63.3844 100.157 64.2373 99.8487 64.9211 99.2914L69.5825 103.057C69.3055 103.599 69.1611 104.199 69.1611 104.808C69.1611 105.416 69.3055 106.016 69.5825 106.558L64.9211 110.324C64.2373 109.766 63.3844 109.458 62.5024 109.45C61.6203 109.442 60.7617 109.734 60.0677 110.278C59.3737 110.823 58.8856 111.587 58.6836 112.446C58.4816 113.304 58.5777 114.206 58.9562 115.003C59.3346 115.8 59.9729 116.444 60.7661 116.83C61.5592 117.216 62.4601 117.32 63.3205 117.126C64.181 116.932 64.9499 116.452 65.5008 115.763C66.0517 115.074 66.3518 114.218 66.3519 113.336C66.3526 112.728 66.208 112.129 65.9302 111.589L70.5916 107.824C71.074 108.217 71.6438 108.488 72.253 108.615C72.8622 108.742 73.493 108.721 74.0924 108.554C74.6917 108.386 75.242 108.077 75.6971 107.653C76.1521 107.228 76.4985 106.7 76.7072 106.114C76.9158 105.528 76.9806 104.9 76.8961 104.284C76.8116 103.667 76.5802 103.08 76.2215 102.571C75.8627 102.063 75.3871 101.648 74.8346 101.361C74.2821 101.075 73.6689 100.926 73.0466 100.926V100.926Z" fill="#E0E0E0"/>
<path d="M188.265 250.46C268.904 250.46 334.275 246.643 334.275 241.935C334.275 237.227 268.904 233.411 188.265 233.411C107.625 233.411 42.2544 237.227 42.2544 241.935C42.2544 246.643 107.625 250.46 188.265 250.46Z" fill="#F5F5F5"/>
<path d="M261.205 136.281H318.204C320.305 136.281 322.32 137.116 323.806 138.602C325.292 140.087 326.126 142.102 326.126 144.203V187.527C326.126 189.628 325.292 191.643 323.806 193.129C322.32 194.614 320.305 195.449 318.204 195.449H275.167C274.752 198.836 273.116 201.955 270.565 204.22C268.013 206.486 264.723 207.743 261.311 207.754C260.994 207.754 260.686 207.754 260.369 207.709C262.629 204.772 264.413 200.525 265.603 195.457H261.243C259.142 195.457 257.127 194.622 255.641 193.136C254.155 191.65 253.321 189.635 253.321 187.534V144.203C253.321 142.109 254.15 140.1 255.628 138.615C257.105 137.13 259.111 136.291 261.205 136.281V136.281Z" fill="#F82647"/>
<path opacity="0.4" d="M261.205 136.281H318.204C320.305 136.281 322.32 137.116 323.806 138.602C325.292 140.087 326.126 142.102 326.126 144.203V187.527C326.126 189.628 325.292 191.643 323.806 193.129C322.32 194.614 320.305 195.449 318.204 195.449H275.167C274.752 198.836 273.116 201.955 270.565 204.22C268.013 206.486 264.723 207.743 261.311 207.754C260.994 207.754 260.686 207.754 260.369 207.709C262.629 204.772 264.413 200.525 265.603 195.457H261.243C259.142 195.457 257.127 194.622 255.641 193.136C254.155 191.65 253.321 189.635 253.321 187.534V144.203C253.321 142.109 254.15 140.1 255.628 138.615C257.105 137.13 259.111 136.291 261.205 136.281V136.281Z" fill="white"/>
<path d="M258.509 153.127L255.693 148.36L257.455 145.348C257.569 145.152 257.638 144.934 257.656 144.708C257.675 144.483 257.642 144.256 257.56 144.045L257.425 143.706C257.319 143.424 257.132 143.18 256.886 143.005C256.64 142.83 256.348 142.734 256.047 142.727L253.283 142.652C253.002 142.642 252.725 142.711 252.481 142.851C252.238 142.99 252.038 143.195 251.905 143.443L251.348 144.467C251.213 144.714 251.138 144.989 251.129 145.27C251.12 145.551 251.177 145.831 251.295 146.086L252.485 148.654L254.691 154.558L258.509 153.127Z" fill="#7F3E3B"/>
<path d="M280.942 152.291L264.85 164.001L257.319 149.859L253.027 151.719C253.027 151.719 259.646 173.151 263.494 172.285C267.342 171.419 278.201 166.05 281.733 162.367C283.518 160.507 284.873 157.096 283.111 152.879C283.03 152.677 282.903 152.496 282.74 152.352C282.577 152.207 282.383 152.102 282.173 152.045C281.963 151.988 281.742 151.981 281.529 152.024C281.315 152.066 281.115 152.158 280.942 152.291V152.291Z" fill="#F82647"/>
<path d="M286.952 124.406C286.952 124.406 281.274 125.912 283.902 132.757C283.902 132.757 286.734 132.004 287.193 130.182C287.652 128.359 288.089 125.784 288.089 125.784L286.952 124.406Z" fill="#263238"/>
<path opacity="0.3" d="M286.952 124.406C286.952 124.406 281.274 125.912 283.902 132.757C283.902 132.757 286.734 132.004 287.193 130.182C287.652 128.359 288.089 125.784 288.089 125.784L286.952 124.406Z" fill="black"/>
<path d="M300.379 151.614L290.002 151.275L285.709 151.892L285.122 159.717L293.489 162.495L302.412 160.718L302.879 153.18L302.239 151.674L300.379 151.614Z" fill="#7F3E3B"/>
<path d="M286.251 195.449H300.936C301.079 190.275 301.847 163.414 301.689 163.579C301.531 163.745 303.24 157.856 303.24 157.856V155.469L301.689 152.909C301.689 152.909 298.361 157.984 292.878 157.736C287.682 157.495 286.786 152.306 286.786 152.306L286.161 160.236L285.506 179.439L286.342 187.572L286.251 195.449Z" fill="#F82647"/>
<path opacity="0.6" d="M286.251 195.449H300.936C301.079 190.275 301.847 163.414 301.689 163.579C301.531 163.745 303.24 157.856 303.24 157.856V155.469L301.689 152.909C301.689 152.909 298.361 157.984 292.878 157.736C287.682 157.495 286.786 152.306 286.786 152.306L286.161 160.236L285.506 179.439L286.342 187.572L286.251 195.449Z" fill="white"/>
<path d="M280.408 195.449H288.36C289.927 185.087 290.138 166.14 290.138 166.14C289.188 162.513 288.446 158.834 287.916 155.123C287.434 150.777 293.639 151.357 299.061 152.073C304.483 152.788 294.844 166.501 294.844 166.501C294.844 166.501 294.159 185.034 295.748 195.449H315.327C314.348 192.685 311.457 184.198 310.809 178.181C309.973 170.907 314.981 160.296 314.266 155.123C313.55 149.949 296.388 151.003 296.388 151.003C296.388 151.003 285.401 150.928 282.953 151.041C280.092 151.169 278.947 158.707 277.592 164.664C276.236 170.621 278.729 176.517 280.092 184.01C280.768 187.786 280.874 191.642 280.408 195.449Z" fill="#263238"/>
<path d="M289.174 150.981C292.743 150.981 296.426 150.981 296.426 150.981C296.426 150.981 298.617 150.845 301.464 150.906C302.601 151.659 304.099 153.481 302.91 157.291L300.425 158.248L300.876 160.695C300.876 160.695 298.015 165.214 294.852 166.946C294.852 166.644 294.852 166.479 294.852 166.479C294.852 166.479 304.499 152.766 299.069 152.05C293.639 151.335 287.442 150.755 287.924 155.1C288.454 158.812 289.195 162.49 290.145 166.117C290.145 166.117 290.145 166.193 290.145 166.321C288.639 164.958 287.321 162.555 286.38 159.679L287.397 156.862L285.137 155.627C285.33 154.561 285.807 153.567 286.518 152.75C287.228 151.932 288.145 151.321 289.174 150.981Z" fill="#F82647"/>
<path d="M289.023 155.085C288.849 154.685 288.778 154.248 288.818 153.814C288.857 153.38 289.005 152.962 289.249 152.6C293.33 151.222 292.954 148.157 292.012 145.318L298.587 138.608C298.203 142.178 298.059 150.394 300.394 153.255V153.911C299.379 155.215 298.02 156.211 296.471 156.787C294.921 157.363 293.242 157.496 291.621 157.171C291.046 157.074 290.505 156.831 290.05 156.466C289.596 156.101 289.242 155.626 289.023 155.085V155.085Z" fill="#7F3E3B"/>
<path opacity="0.1" d="M292.013 145.318L297.239 139.986L298.444 140.423C298.406 141.063 298.384 141.764 298.376 142.502C297.714 143.857 296.117 145.762 292.412 146.719C292.304 146.245 292.171 145.777 292.013 145.318V145.318Z" fill="black"/>
<path d="M301.976 132.69C300.387 138.767 299.845 141.372 296.117 143.918C290.515 147.751 283.398 144.475 283.135 138.044C282.901 132.253 285.529 123.291 292.036 122.026C293.468 121.741 294.95 121.827 296.34 122.275C297.73 122.723 298.982 123.519 299.978 124.588C300.974 125.656 301.68 126.961 302.03 128.379C302.379 129.797 302.361 131.281 301.976 132.69Z" fill="#7F3E3B"/>
<path d="M287.494 134.256C286.823 135.311 286.013 136.271 285.084 137.11C285.302 137.342 285.568 137.523 285.863 137.642C286.159 137.76 286.476 137.812 286.794 137.795L287.494 134.256Z" fill="#630F0F"/>
<path d="M293.978 132.019C294.021 132.017 294.062 132.004 294.099 131.981C294.127 131.965 294.152 131.943 294.171 131.917C294.191 131.891 294.205 131.861 294.213 131.83C294.22 131.798 294.222 131.765 294.216 131.733C294.211 131.701 294.199 131.67 294.181 131.642C293.951 131.236 293.624 130.891 293.231 130.638C292.837 130.384 292.388 130.23 291.922 130.189C291.89 130.188 291.857 130.194 291.827 130.205C291.796 130.217 291.768 130.234 291.744 130.257C291.721 130.279 291.701 130.306 291.688 130.336C291.675 130.365 291.667 130.397 291.666 130.43C291.664 130.462 291.669 130.495 291.679 130.525C291.69 130.556 291.707 130.584 291.729 130.608C291.75 130.631 291.777 130.651 291.806 130.664C291.836 130.678 291.867 130.685 291.9 130.686C292.283 130.729 292.651 130.861 292.973 131.073C293.295 131.285 293.562 131.571 293.752 131.906C293.777 131.943 293.811 131.973 293.85 131.992C293.89 132.012 293.934 132.021 293.978 132.019Z" fill="#263238"/>
<path d="M283.902 130.189C283.942 130.2 283.983 130.2 284.023 130.189C284.353 129.993 284.725 129.877 285.109 129.852C285.492 129.828 285.876 129.894 286.229 130.046C286.288 130.076 286.357 130.081 286.42 130.062C286.483 130.042 286.536 129.999 286.568 129.941V129.941C286.583 129.911 286.593 129.879 286.595 129.846C286.598 129.812 286.594 129.779 286.583 129.747C286.573 129.716 286.556 129.686 286.534 129.661C286.512 129.636 286.485 129.616 286.455 129.602C286.028 129.412 285.563 129.327 285.096 129.353C284.63 129.379 284.177 129.516 283.774 129.752C283.716 129.784 283.673 129.837 283.653 129.901C283.634 129.964 283.639 130.032 283.669 130.091C283.691 130.133 283.725 130.167 283.767 130.189C283.808 130.212 283.855 130.222 283.902 130.219V130.189Z" fill="#263238"/>
<path d="M289.339 139.467C289.049 139.468 288.759 139.443 288.473 139.391C288.453 139.389 288.434 139.382 288.417 139.372C288.4 139.361 288.385 139.348 288.373 139.332C288.361 139.316 288.352 139.297 288.348 139.278C288.343 139.258 288.342 139.238 288.345 139.218C288.353 139.179 288.375 139.144 288.407 139.12C288.439 139.096 288.479 139.086 288.518 139.09C289.154 139.215 289.81 139.19 290.433 139.016C291.057 138.842 291.631 138.524 292.11 138.089C292.14 138.068 292.176 138.058 292.212 138.061C292.248 138.064 292.282 138.078 292.308 138.103C292.335 138.128 292.352 138.161 292.357 138.196C292.362 138.232 292.355 138.268 292.336 138.299C291.524 139.059 290.451 139.477 289.339 139.467Z" fill="#263238"/>
<path d="M299.889 137.441C299.154 136.606 298.609 135.622 298.29 134.556C297.972 133.49 297.888 132.367 298.044 131.266C298.044 131.266 295.597 128.758 295.718 126.077C295.718 126.077 294.964 128.216 295.718 129.737C295.718 129.737 289.369 129.278 289.52 126.077C289.52 126.077 289.098 127.689 290.055 128.525C290.055 128.525 284.414 128.758 285.182 125.836C285.95 122.914 290.363 121.491 290.363 121.491C290.363 121.491 294.573 117.914 300.394 124.232C300.394 124.232 307.247 128.51 302.39 135.649L299.889 137.441Z" fill="#263238"/>
<path d="M302.435 137.84C302.159 138.378 301.779 138.855 301.316 139.243C300.853 139.631 300.317 139.922 299.739 140.099C298.233 140.566 297.397 139.195 297.796 137.727C298.158 136.402 299.393 134.564 300.959 134.715C301.502 134.795 301.991 135.087 302.319 135.528C302.646 135.968 302.786 136.521 302.706 137.064C302.67 137.339 302.578 137.603 302.435 137.84V137.84Z" fill="#7F3E3B"/>
<path d="M292.065 133.389C292.005 133.909 291.681 134.308 291.312 134.271C290.943 134.233 290.74 133.789 290.8 133.254C290.861 132.719 291.177 132.343 291.516 132.373C291.855 132.403 292.118 132.862 292.065 133.389Z" fill="#2E353A"/>
<path d="M286.162 132.772C286.109 133.292 285.785 133.683 285.446 133.653C285.107 133.623 284.866 133.164 284.919 132.637C284.972 132.109 285.296 131.718 285.672 131.755C286.049 131.793 286.162 132.237 286.162 132.772Z" fill="#2E353A"/>
<path d="M285.747 131.801L284.527 131.304C284.527 131.304 285.069 132.35 285.747 131.801Z" fill="#2E353A"/>
<path d="M291.689 132.448L290.461 131.958C290.461 131.958 291.011 132.975 291.689 132.448Z" fill="#2E353A"/>
<path d="M299.362 142.923C299.757 142.924 300.143 142.81 300.474 142.595C300.805 142.38 301.066 142.074 301.226 141.713C301.385 141.352 301.437 140.953 301.373 140.563C301.31 140.174 301.134 139.811 300.868 139.52L300.605 139.761C300.888 140.068 301.044 140.472 301.041 140.89C301.043 141.223 300.946 141.549 300.762 141.826C300.578 142.103 300.315 142.32 300.008 142.448C299.701 142.576 299.363 142.61 299.036 142.545C298.71 142.481 298.41 142.32 298.175 142.085C297.939 141.85 297.779 141.55 297.715 141.223C297.65 140.897 297.684 140.559 297.812 140.252C297.94 139.944 298.157 139.682 298.434 139.498C298.711 139.314 299.037 139.217 299.37 139.218C299.606 139.216 299.839 139.265 300.055 139.361L300.198 139.038C299.939 138.917 299.656 138.856 299.37 138.857C299.103 138.857 298.838 138.91 298.592 139.012C298.345 139.114 298.121 139.264 297.932 139.452C297.743 139.641 297.593 139.865 297.491 140.112C297.389 140.359 297.336 140.623 297.336 140.89C297.336 141.157 297.389 141.422 297.491 141.668C297.593 141.915 297.743 142.139 297.932 142.328C298.121 142.517 298.345 142.666 298.592 142.769C298.838 142.871 299.103 142.923 299.37 142.923H299.362Z" fill="#F82647"/>
<g opacity="0.6">
<path d="M299.362 142.923C299.757 142.924 300.143 142.81 300.474 142.595C300.805 142.38 301.066 142.074 301.226 141.713C301.385 141.352 301.437 140.953 301.373 140.563C301.31 140.174 301.134 139.811 300.868 139.52L300.605 139.761C300.888 140.068 301.044 140.472 301.041 140.89C301.043 141.223 300.946 141.549 300.762 141.826C300.578 142.103 300.315 142.32 300.008 142.448C299.701 142.576 299.363 142.61 299.036 142.545C298.71 142.481 298.41 142.32 298.175 142.085C297.939 141.85 297.779 141.55 297.715 141.223C297.65 140.897 297.684 140.559 297.812 140.252C297.94 139.944 298.157 139.682 298.434 139.498C298.711 139.314 299.037 139.217 299.37 139.218C299.606 139.216 299.839 139.265 300.055 139.361L300.198 139.038C299.939 138.917 299.656 138.856 299.37 138.857C299.103 138.857 298.838 138.91 298.592 139.012C298.345 139.114 298.121 139.264 297.932 139.452C297.743 139.641 297.593 139.865 297.491 140.112C297.389 140.359 297.336 140.623 297.336 140.89C297.336 141.157 297.389 141.422 297.491 141.668C297.593 141.915 297.743 142.139 297.932 142.328C298.121 142.517 298.345 142.666 298.592 142.769C298.838 142.871 299.103 142.923 299.37 142.923H299.362Z" fill="white"/>
</g>
<path d="M297.962 173.679L292.434 173.92L290.582 170.907C290.463 170.713 290.301 170.549 290.11 170.426C289.918 170.304 289.701 170.226 289.475 170.199L289.113 170.154C288.816 170.115 288.513 170.166 288.245 170.301C287.977 170.435 287.755 170.646 287.607 170.907L286.237 173.31C286.096 173.553 286.027 173.831 286.036 174.112C286.046 174.392 286.133 174.665 286.289 174.898L286.929 175.87C287.083 176.106 287.289 176.303 287.533 176.444C287.776 176.585 288.049 176.667 288.33 176.683L291.154 176.841L297.404 177.685L297.962 173.679Z" fill="#7F3E3B"/>
<path d="M307.789 153.534L310.538 173.242H294.505L294.121 177.903C294.121 177.903 316.148 182.173 317.195 178.37C318.242 174.567 318.626 162.465 317.044 157.608C316.239 155.161 313.874 152.337 309.326 151.923C309.112 151.904 308.898 151.933 308.698 152.008C308.497 152.084 308.317 152.203 308.169 152.358C308.022 152.513 307.911 152.699 307.845 152.903C307.779 153.106 307.76 153.322 307.789 153.534V153.534Z" fill="#F82647"/>
<path d="M237.733 39.8226H220.134L202.392 242.696H219.991C224.011 242.623 227.866 241.08 230.826 238.357C233.785 235.635 235.645 231.922 236.053 227.921L251.212 54.6051C251.421 52.7234 251.227 50.8186 250.642 49.0181C250.056 47.2175 249.093 45.5624 247.818 44.1634C246.542 42.7644 244.983 41.6535 243.243 40.905C241.504 40.1565 239.626 39.7875 237.733 39.8226Z" fill="#263238"/>
<path d="M248.637 60.1547C248.675 59.7767 248.848 59.4251 249.125 59.1649C249.402 58.9047 249.763 58.7534 250.143 58.739C250.324 58.7358 250.504 58.7712 250.671 58.8429C250.838 58.9146 250.987 59.021 251.11 59.1548C251.232 59.2887 251.325 59.4471 251.381 59.6195C251.438 59.7918 251.457 59.9743 251.438 60.1547L250.248 73.7098C250.23 74.1045 250.064 74.4781 249.784 74.7569C249.504 75.0356 249.129 75.1994 248.735 75.2159C248.554 75.218 248.375 75.1817 248.209 75.1095C248.043 75.0374 247.895 74.9309 247.773 74.7972C247.651 74.6634 247.559 74.5054 247.503 74.3336C247.447 74.1617 247.428 73.9799 247.447 73.8001L248.637 60.1547Z" fill="#F82647"/>
<path opacity="0.3" d="M248.637 60.1547C248.675 59.7767 248.848 59.4251 249.125 59.1649C249.402 58.9047 249.763 58.7534 250.143 58.739C250.324 58.7358 250.504 58.7712 250.671 58.8429C250.838 58.9146 250.987 59.021 251.11 59.1548C251.232 59.2887 251.325 59.4471 251.381 59.6195C251.438 59.7918 251.457 59.9743 251.438 60.1547L250.248 73.7098C250.23 74.1045 250.064 74.4781 249.784 74.7569C249.504 75.0356 249.129 75.1994 248.735 75.2159C248.554 75.218 248.375 75.1817 248.209 75.1095C248.043 75.0374 247.895 74.9309 247.773 74.7972C247.651 74.6634 247.559 74.5054 247.503 74.3336C247.447 74.1617 247.428 73.9799 247.447 73.8001L248.637 60.1547Z" fill="white"/>
<path d="M216.383 242.696H143.872C141.98 242.73 140.102 242.36 138.364 241.612C136.626 240.863 135.068 239.753 133.792 238.355C132.517 236.957 131.554 235.304 130.968 233.505C130.381 231.706 130.185 229.802 130.392 227.921L145.558 54.605C145.962 50.6017 147.82 46.8855 150.78 44.1608C153.741 41.4362 157.598 39.8925 161.621 39.8224H234.133C236.024 39.7888 237.901 40.1582 239.638 40.9063C241.376 41.6544 242.934 42.7638 244.209 44.1609C245.484 45.5579 246.447 47.2105 247.034 49.0087C247.621 50.807 247.818 52.7095 247.613 54.5899L232.446 227.921C232.038 231.922 230.178 235.634 227.219 238.357C224.259 241.079 220.404 242.623 216.383 242.696V242.696Z" fill="#F82647"/>
<path d="M233.839 43.2262H215.013C214.399 43.2382 213.808 43.4554 213.333 43.8431C212.858 44.2308 212.527 44.7667 212.392 45.3649L212.264 45.9598C211.937 47.4221 211.128 48.7323 209.967 49.68C208.807 50.6277 207.361 51.158 205.863 51.186H187.925C186.506 51.2164 185.133 50.6836 184.105 49.7043C183.078 48.7249 182.48 47.3787 182.443 45.9598V45.3649C182.435 45.0761 182.37 44.7917 182.253 44.5278C182.135 44.264 181.966 44.026 181.756 43.8274C181.547 43.6288 181.3 43.4735 181.03 43.3703C180.76 43.2672 180.472 43.2182 180.184 43.2262H161.357C158.261 43.2837 155.293 44.4729 153.013 46.5693C150.733 48.6656 149.3 51.5241 148.984 54.6049L133.78 227.921C133.621 229.37 133.772 230.837 134.223 232.224C134.675 233.61 135.416 234.884 136.399 235.961C137.381 237.039 138.582 237.894 139.921 238.471C141.26 239.048 142.707 239.333 144.165 239.307H216.684C219.782 239.25 222.751 238.059 225.031 235.962C227.311 233.864 228.743 231.003 229.057 227.921L244.224 54.6049C244.382 53.1562 244.23 51.6903 243.778 50.3049C243.326 48.9194 242.584 47.6461 241.602 46.5696C240.619 45.4932 239.419 44.6383 238.081 44.0618C236.742 43.4853 235.296 43.2005 233.839 43.2262Z" fill="#F82647"/>
<path opacity="0.7" d="M233.839 43.2262H215.013C214.399 43.2382 213.808 43.4554 213.333 43.8431C212.858 44.2308 212.527 44.7667 212.392 45.3649L212.264 45.9598C211.937 47.4221 211.128 48.7323 209.967 49.68C208.807 50.6277 207.361 51.158 205.863 51.186H187.925C186.506 51.2164 185.133 50.6836 184.105 49.7043C183.078 48.7249 182.48 47.3787 182.443 45.9598V45.3649C182.435 45.0761 182.37 44.7917 182.253 44.5278C182.135 44.264 181.966 44.026 181.756 43.8274C181.547 43.6288 181.3 43.4735 181.03 43.3703C180.76 43.2672 180.472 43.2182 180.184 43.2262H161.357C158.261 43.2837 155.293 44.4729 153.013 46.5693C150.733 48.6656 149.3 51.5241 148.984 54.6049L133.78 227.921C133.621 229.37 133.772 230.837 134.223 232.224C134.675 233.61 135.416 234.884 136.399 235.961C137.381 237.039 138.582 237.894 139.921 238.471C141.26 239.048 142.707 239.333 144.165 239.307H216.684C219.782 239.25 222.751 238.059 225.031 235.962C227.311 233.864 228.743 231.003 229.057 227.921L244.224 54.6049C244.382 53.1562 244.23 51.6903 243.778 50.3049C243.326 48.9194 242.584 47.6461 241.602 46.5696C240.619 45.4932 239.419 44.6383 238.081 44.0618C236.742 43.4853 235.296 43.2005 233.839 43.2262Z" fill="white"/>
<g opacity="0.2">
<path d="M192.533 46.1345C193.134 45.5593 193.195 44.6473 192.668 44.0975C192.142 43.5478 191.228 43.5684 190.628 44.1436C190.027 44.7188 189.966 45.6308 190.493 46.1805C191.019 46.7303 191.933 46.7097 192.533 46.1345Z" fill="black"/>
<path d="M203.363 43.7084H198.423C198.031 43.7155 197.656 43.8657 197.367 44.1307C197.079 44.3956 196.897 44.757 196.857 45.1467C196.837 45.3301 196.857 45.5155 196.915 45.6906C196.973 45.8657 197.067 46.0266 197.192 46.1625C197.316 46.2985 197.468 46.4065 197.638 46.4793C197.807 46.5521 197.99 46.5882 198.175 46.585H203.115C203.506 46.5763 203.88 46.4256 204.169 46.1609C204.457 45.8962 204.639 45.5358 204.681 45.1467C204.701 44.9631 204.682 44.7772 204.625 44.6015C204.568 44.4259 204.474 44.2645 204.349 44.1283C204.224 43.992 204.071 43.8841 203.901 43.8116C203.731 43.7392 203.548 43.704 203.363 43.7084V43.7084Z" fill="black"/>
</g>
<path d="M157.141 51.1635H158.662L158.797 49.6348H157.269L157.141 51.1635Z" fill="#F82647"/>
<path d="M160.326 49.6349L160.19 51.1637H161.711L161.847 49.6349L161.982 48.1138H160.454L160.326 49.6349Z" fill="#F82647"/>
<path d="M163.639 46.585L163.504 48.1137L163.368 49.6348L163.24 51.1636H164.761L164.897 49.6348L165.032 48.1137L165.16 46.585H163.639Z" fill="#F82647"/>
<path d="M229.208 46.6904L229.11 47.805H228.357L228.161 50.0641H228.914L228.816 51.1862H235.526L235.918 46.713L229.208 46.6904ZM231.896 50.0415H229.637L229.833 47.7824H232.092L231.896 50.0415Z" fill="#F82647"/>
<g opacity="0.4">
<path d="M187.978 51.186L137.922 237.319C139.739 238.628 141.926 239.325 144.165 239.307H148.081L198.671 51.186H187.978Z" fill="white"/>
<path d="M233.839 43.2261H215.012C214.399 43.2381 213.808 43.4553 213.333 43.843C212.858 44.2307 212.526 44.7665 212.392 45.3648L212.264 45.9597C211.945 47.3831 211.171 48.6635 210.057 49.6057C208.944 50.5479 207.553 51.1002 206.096 51.1784L155.476 239.307H194.07L244.223 52.805C244.063 50.177 242.892 47.7128 240.957 45.9277C239.022 44.1425 236.471 43.1745 233.839 43.2261V43.2261Z" fill="white"/>
</g>
<path d="M158.074 93.7414L155.815 93.2519C155.669 93.2233 155.532 93.1632 155.412 93.0758C155.292 92.9884 155.192 92.8758 155.121 92.7459C155.049 92.616 155.006 92.4719 154.996 92.3239C154.986 92.1758 155.008 92.0273 155.062 91.8888L158.217 83.6504L161.824 84.4034L159.256 93.0109C159.189 93.26 159.029 93.4741 158.81 93.6097C158.59 93.7453 158.327 93.7924 158.074 93.7414Z" fill="#F82647"/>
<path d="M166.824 83.1986C166.676 83.1665 166.535 83.1053 166.41 83.0185C166.285 82.9317 166.179 82.8211 166.097 82.693C166.015 82.5649 165.959 82.4218 165.933 82.2721C165.906 82.1223 165.91 81.9688 165.943 81.8205L166.244 80.4047C166.276 80.2553 166.338 80.1138 166.425 79.9883C166.512 79.8629 166.624 79.7561 166.753 79.6741C166.882 79.5921 167.026 79.5365 167.176 79.5107C167.327 79.4849 167.481 79.4893 167.63 79.5236C167.931 79.5886 168.193 79.7703 168.36 80.0287C168.526 80.2871 168.583 80.6012 168.519 80.9017L168.21 82.31C168.143 82.6111 167.96 82.8736 167.7 83.0401C167.441 83.2066 167.126 83.2636 166.824 83.1986V83.1986Z" fill="#F82647"/>
<path d="M164.596 76.18C164.596 76.18 156.011 75.201 153.006 73.6648C145.942 70.035 139.187 61.3749 137.757 61.0661C135.422 60.554 132.244 66.0815 130.648 73.4087C129.051 80.736 129.654 87.0767 131.988 87.5813C133.426 87.8975 143.156 82.8219 151.093 82.4529C154.467 82.3023 162.66 85.0058 162.66 85.0058L164.596 76.18Z" fill="#F82647"/>
<path opacity="0.3" d="M164.596 76.18C164.596 76.18 156.011 75.201 153.006 73.6648C145.942 70.035 139.187 61.3749 137.757 61.0661C135.422 60.554 132.244 66.0815 130.648 73.4087C129.051 80.736 129.654 87.0767 131.988 87.5813C133.426 87.8975 143.156 82.8219 151.093 82.4529C154.467 82.3023 162.66 85.0058 162.66 85.0058L164.596 76.18Z" fill="white"/>
<path d="M139.097 75.2159C137.508 82.5356 134.322 88.063 131.988 87.551C129.653 87.0389 129.058 80.6981 130.647 73.3784C132.236 66.0587 135.422 60.5237 137.756 61.0358C140.091 61.5479 140.693 67.9187 139.097 75.2159Z" fill="#F82647"/>
<path opacity="0.4" d="M139.097 75.2159C137.508 82.5356 134.322 88.063 131.988 87.551C129.653 87.0389 129.058 80.6981 130.647 73.3784C132.236 66.0587 135.422 60.5237 137.756 61.0358C140.091 61.5479 140.693 67.9187 139.097 75.2159Z" fill="black"/>
<path d="M163.202 75.2161L159.218 74.3501C158.962 74.2935 158.697 74.2904 158.439 74.3408C158.181 74.3912 157.937 74.4942 157.721 74.6432C157.504 74.7923 157.321 74.9843 157.183 75.2072C157.044 75.4301 156.952 75.6793 156.914 75.939C156.771 76.9406 156.59 77.9723 156.364 79.0266C156.138 80.0808 155.867 81.0975 155.611 82.0388C155.538 82.2916 155.518 82.5568 155.552 82.8178C155.585 83.0788 155.672 83.33 155.807 83.556C155.942 83.782 156.122 83.9778 156.336 84.1314C156.549 84.2849 156.792 84.3929 157.05 84.4486L161.771 85.4727C164.603 86.0902 166.644 84.0946 167.216 81.2481C167.472 79.9171 167.195 78.5389 166.444 77.4105C165.693 76.2821 164.529 75.494 163.202 75.2161V75.2161Z" fill="#263238"/>
<path d="M135 73.7474L134.752 74.8996C134.68 75.2216 134.724 75.5588 134.877 75.8512C135.03 76.1436 135.282 76.3721 135.588 76.4961L138.48 77.701C138.705 76.9103 138.916 76.0894 139.097 75.246C139.278 74.4026 139.436 73.5592 139.564 72.7459L136.424 72.6404C136.094 72.6293 135.772 72.734 135.512 72.9363C135.252 73.1386 135.071 73.4256 135 73.7474V73.7474Z" fill="#263238"/>
<path opacity="0.8" d="M135 73.7474L134.752 74.8996C134.68 75.2216 134.724 75.5588 134.877 75.8512C135.03 76.1436 135.282 76.3721 135.588 76.4961L138.48 77.701C138.705 76.9103 138.916 76.0894 139.097 75.246C139.278 74.4026 139.436 73.5592 139.564 72.7459L136.424 72.6404C136.094 72.6293 135.772 72.734 135.512 72.9363C135.252 73.1386 135.071 73.4256 135 73.7474V73.7474Z" fill="white"/>
<path opacity="0.2" d="M137.184 74.8244C137.026 75.5775 136.853 76.2552 136.665 76.9481L138.479 77.7011C138.705 76.9104 138.916 76.0896 139.097 75.2461C139.278 74.4027 139.436 73.5593 139.564 72.746L137.591 72.6782C137.48 73.366 137.345 74.0814 137.184 74.8244Z" fill="black"/>
<path d="M206.76 75.2763C207.479 75.5516 208.254 75.6522 209.019 75.5697C209.785 75.4872 210.521 75.2241 211.165 74.8018C213.477 73.2957 217.814 75.1934 216.504 81.361C214.245 91.964 209.531 99.5775 212.588 102.785C212.588 102.785 202.407 103.252 203.913 94.2609C205.043 87.4833 212.701 79.8624 210.856 78.3412C210.239 77.8291 209.35 78.0927 206.451 78.0927L206.76 75.2763Z" fill="#263238"/>
<path d="M206.45 78.0927C207.846 78.0466 209.24 78.2142 210.585 78.5897C211.059 77.2246 211.244 75.7755 211.127 74.335C209.644 74.5053 208.181 74.8206 206.759 75.2763L206.45 78.0927Z" fill="#F82647"/>
<path d="M196.864 67.5501C196.864 67.5501 192.632 66.3452 195.426 63.6116C199.071 60.0496 204.252 66.7217 204.252 66.7217C204.252 66.7217 216.399 72.0308 206.375 84.3433C206.375 84.3433 202.753 90.8196 202 88.2968C201.247 85.7741 206.277 78.6276 206.277 78.6276L205.976 72.2266L204.583 69.734L200.208 67.2338L196.864 67.5501Z" fill="#263238"/>
<path d="M180.078 103.614C179.791 103.144 179.414 102.736 178.97 102.412C178.525 102.088 178.02 101.855 177.485 101.727C176.95 101.598 176.395 101.576 175.851 101.662C175.308 101.748 174.787 101.941 174.317 102.228H174.257C172.939 103.034 171.539 103.93 170.153 104.758L165.973 107.266C164.016 108.416 162.048 109.533 160.07 110.617C159.956 109.114 159.931 107.605 159.994 106.099C160.047 104.337 160.175 102.537 160.311 100.737C160.446 98.9373 160.627 97.0923 160.777 95.3076V95.2624C160.816 94.7607 160.672 94.262 160.372 93.8576C160.073 93.4533 159.638 93.1704 159.146 93.0606C158.655 92.9509 158.141 93.0217 157.698 93.2601C157.255 93.4985 156.913 93.8885 156.733 94.3587C156.063 96.1736 155.536 97.9659 155.009 99.8033C154.482 101.641 154.083 103.493 153.729 105.406C153.342 107.392 153.131 109.408 153.096 111.431C153.066 112.703 153.231 113.973 153.586 115.196C153.909 116.289 154.536 117.268 155.393 118.02C156.043 118.569 156.819 118.95 157.652 119.127C158.378 119.268 159.125 119.268 159.851 119.127C160.026 119.088 160.197 119.035 160.363 118.969L160.612 118.871C162.216 118.208 163.812 117.545 165.364 116.792C166.915 116.039 168.466 115.286 169.98 114.495C171.493 113.705 172.992 112.854 174.498 111.973C176.004 111.092 177.405 110.211 178.888 109.186C179.751 108.577 180.352 107.665 180.572 106.633C180.793 105.6 180.616 104.522 180.078 103.614V103.614Z" fill="#CE7A63"/>
<path d="M183.746 98.1167C186.284 103.23 182.632 107.665 175.937 114.774C172.44 111.939 169.998 108.011 169.001 103.622C169.001 103.622 176.743 97.2356 183.746 98.1167Z" fill="#F82647"/>
<path opacity="0.2" d="M184.009 104.186C181.532 102.68 178.738 102.002 176.802 104.465C175.292 106.448 173.541 108.236 171.591 109.789C172.777 111.669 174.251 113.351 175.959 114.774C179.98 110.527 182.857 107.236 184.009 104.186Z" fill="black"/>
<path d="M158.895 85.7588L160.612 86.8959C160.932 87.1044 161.197 87.3872 161.385 87.7202C161.572 88.0533 161.677 88.4267 161.689 88.8087L161.824 92.4309C161.847 93.1437 161.7 93.8517 161.397 94.4969C161.093 95.1422 160.641 95.7064 160.077 96.1435L159.362 96.6932C156.35 94.9988 154.399 90.9775 154.399 90.9775L153.706 89.8931C153.558 89.6746 153.454 89.4288 153.402 89.1699C153.349 88.911 153.348 88.6443 153.399 88.3851C153.45 88.1259 153.552 87.8794 153.699 87.66C153.847 87.4405 154.036 87.2525 154.256 87.1068L156.38 85.7061C156.759 85.4711 157.199 85.351 157.645 85.3604C158.092 85.3697 158.526 85.5081 158.895 85.7588V85.7588Z" fill="#CE7A63"/>
<path d="M177.864 239.307C181.765 227.258 184.431 213.876 181.78 204.109C197.895 156.772 190.628 142.991 190.628 142.991L171.448 135.995C171.448 135.995 168.707 178.626 167.879 199.252C167.419 210.781 165.454 225.775 163.187 239.315L177.864 239.307Z" fill="#263238"/>
<path opacity="0.5" d="M187.812 160.507L183.919 154.227L181.539 159.121C180.298 172.618 180.886 186.221 183.286 199.561C186.389 190.244 188.839 180.722 190.621 171.065L187.812 160.507Z" fill="black"/>
<path d="M189.65 239.308H204.191C205.698 226.784 205.698 213.312 201.255 204.305C208.032 154.762 198.242 142.63 198.242 142.63L178.075 139.437C178.075 139.437 183.55 181.804 186.69 202.189C188.309 212.747 189.228 226.445 189.65 239.308Z" fill="#263238"/>
<path d="M174.769 107.635C173.918 111.3 173.314 115.019 172.962 118.765C172.314 124.225 171.84 129.617 171.215 138.631L198.521 142.991C199.191 135.22 201.473 126.597 209.116 110.068C209.548 109.208 209.782 108.262 209.801 107.3C209.821 106.338 209.625 105.384 209.228 104.508C208.831 103.631 208.243 102.855 207.507 102.235C206.771 101.615 205.906 101.168 204.974 100.925C203.913 100.647 202.783 100.376 201.616 100.127C197.533 99.1806 193.388 98.5263 189.213 98.1693C187.85 98.0789 186.427 98.0262 185.064 97.9961C180.139 97.868 175.68 102.853 174.769 107.635Z" fill="#F82647"/>
<path d="M202.949 85.9922C201.239 89.8102 198.762 96.9115 200.931 99.984C200.931 99.984 197.241 98.8168 188.437 102.507C186.638 98.8092 188.535 97.9884 188.535 97.9884C193.227 97.6495 193.882 94.3662 193.807 91.2109L202.949 85.9922Z" fill="#CE7A63"/>
<path d="M190.282 101.777C190.756 101.951 191.186 102.224 191.545 102.579C191.903 102.934 192.182 103.361 192.361 103.832C192.511 104.175 192.731 104.482 193.008 104.734C193.285 104.985 193.613 105.175 193.968 105.291C194.324 105.407 194.7 105.446 195.072 105.406C195.444 105.367 195.803 105.249 196.126 105.06C198.385 103.787 201.232 101.972 202.655 100.361C201.918 99.7996 201.211 99.1988 200.539 98.561C200.539 98.561 192.067 100.496 190.282 101.777Z" fill="white"/>
<path d="M187.835 100.956C187.19 101.06 186.581 101.318 186.058 101.709C185.913 101.814 185.738 101.871 185.558 101.871C185.379 101.871 185.204 101.815 185.058 101.709C184.913 101.604 184.805 101.456 184.749 101.285C184.693 101.114 184.692 100.931 184.747 100.76C185.689 98.0939 187.315 97.7475 187.315 97.7475C188.101 97.4481 188.969 97.4481 189.755 97.7475C189.104 97.9631 188.551 98.4056 188.199 98.9945C187.846 99.5834 187.717 100.279 187.835 100.956Z" fill="white"/>
<path opacity="0.2" d="M199.229 88.1235L193.837 91.2111C193.862 91.9667 193.817 92.7231 193.701 93.4702C195.464 93.4702 198.22 92.0244 198.822 90.2999C199.091 89.6058 199.229 88.8679 199.229 88.1235V88.1235Z" fill="black"/>
<path d="M207.625 78.5293C205.366 84.7797 204.613 87.4606 200.419 89.9683C194.161 93.7336 186.954 90.0812 187.263 83.4016C187.549 77.3771 191.149 68.1748 198.122 67.0979C199.612 66.8165 201.15 66.9387 202.577 67.452C204.004 67.9652 205.268 68.8508 206.238 70.017C207.207 71.1831 207.847 72.5874 208.091 74.0841C208.335 75.5808 208.174 77.1156 207.625 78.5293V78.5293Z" fill="#CE7A63"/>
<path d="M199.229 78.2961C199.063 78.8307 198.656 79.1997 198.31 79.1169C197.964 79.034 197.821 78.537 197.979 78.0024C198.137 77.4677 198.559 77.1062 198.905 77.1891C199.251 77.2719 199.394 77.7689 199.229 78.2961Z" fill="#263238"/>
<path d="M192.564 76.519C192.398 77.0462 191.984 77.4152 191.638 77.3323C191.291 77.2495 191.148 76.7525 191.314 76.2253C191.48 75.6982 191.894 75.3217 192.24 75.4045C192.587 75.4873 192.73 75.9693 192.564 76.519Z" fill="#263238"/>
<path d="M192.383 75.472L191.224 74.8018C191.224 74.8018 191.57 75.969 192.383 75.472Z" fill="#263238"/>
<path d="M194.5 77.6182C193.651 78.7239 192.664 79.716 191.563 80.5701C191.781 80.8274 192.053 81.0326 192.361 81.1707C192.668 81.3088 193.003 81.3764 193.34 81.3684L194.5 77.6182Z" fill="#BA4D3C"/>
<path d="M201.254 75.2163C201.212 75.2125 201.17 75.1991 201.134 75.1769C201.097 75.1547 201.066 75.1243 201.043 75.0883C200.838 74.751 200.551 74.4708 200.209 74.2734C199.866 74.0761 199.48 73.9678 199.085 73.9587C199.044 73.9597 199.003 73.9524 198.965 73.9374C198.927 73.9223 198.892 73.8997 198.862 73.8709C198.833 73.8422 198.809 73.8078 198.793 73.7698C198.777 73.7319 198.769 73.6911 198.769 73.6499C198.774 73.5618 198.812 73.4787 198.874 73.4162C198.937 73.3538 199.02 73.3164 199.108 73.311C199.607 73.3197 200.096 73.4523 200.531 73.6968C200.966 73.9413 201.334 74.29 201.601 74.7117C201.63 74.7675 201.643 74.8301 201.639 74.8929C201.635 74.9557 201.615 75.0163 201.579 75.0682C201.543 75.12 201.494 75.1612 201.437 75.1873C201.38 75.2134 201.317 75.2234 201.254 75.2163V75.2163Z" fill="#263238"/>
<path d="M191.133 72.0458C191.096 72.0307 191.062 72.0082 191.034 71.9797C191.005 71.9513 190.983 71.9174 190.968 71.8801C190.941 71.7992 190.948 71.7112 190.986 71.6351C191.024 71.559 191.09 71.501 191.171 71.4735C191.653 71.2706 192.176 71.1813 192.698 71.2127C193.22 71.244 193.729 71.3951 194.183 71.6542C194.217 71.678 194.246 71.7085 194.267 71.7438C194.289 71.7791 194.303 71.8185 194.308 71.8595C194.314 71.9005 194.311 71.9422 194.3 71.982C194.289 72.0218 194.269 72.0589 194.243 72.091C194.191 72.1596 194.115 72.2061 194.03 72.2214C193.945 72.2367 193.857 72.2198 193.784 72.1738C193.421 71.9709 193.016 71.8545 192.601 71.8336C192.185 71.8127 191.771 71.8879 191.389 72.0533C191.348 72.0691 191.304 72.0766 191.26 72.0753C191.217 72.074 191.173 72.064 191.133 72.0458V72.0458Z" fill="#263238"/>
<path d="M199.048 77.2571L197.896 76.5869C197.896 76.5869 198.235 77.7391 199.048 77.2571Z" fill="#263238"/>
<path d="M174.212 128.164H167.705C167.389 128.15 167.086 128.033 166.842 127.832C166.597 127.631 166.425 127.357 166.35 127.049L163.338 112.952C163.299 112.819 163.293 112.68 163.319 112.544C163.346 112.409 163.404 112.282 163.489 112.173C163.575 112.065 163.685 111.979 163.811 111.922C163.936 111.864 164.073 111.838 164.211 111.845H170.718C171.033 111.858 171.335 111.973 171.58 112.173C171.824 112.372 171.997 112.646 172.073 112.952L175.085 127.049C175.124 127.182 175.13 127.322 175.103 127.458C175.077 127.593 175.019 127.721 174.933 127.83C174.848 127.938 174.738 128.025 174.613 128.083C174.487 128.141 174.35 128.169 174.212 128.164V128.164Z" fill="#263238"/>
<path d="M173.459 128.164H166.953C166.636 128.15 166.333 128.033 166.089 127.832C165.844 127.631 165.672 127.357 165.597 127.049L162.585 112.952C162.546 112.819 162.54 112.68 162.566 112.544C162.593 112.409 162.651 112.282 162.736 112.173C162.822 112.065 162.932 111.979 163.058 111.922C163.183 111.864 163.321 111.838 163.458 111.845H169.965C170.28 111.858 170.582 111.973 170.827 112.173C171.071 112.372 171.244 112.646 171.32 112.952L174.332 127.049C174.371 127.182 174.377 127.322 174.35 127.458C174.324 127.593 174.266 127.721 174.181 127.83C174.095 127.938 173.985 128.025 173.86 128.083C173.735 128.141 173.597 128.169 173.459 128.164V128.164Z" fill="#263238"/>
<path opacity="0.2" d="M173.459 128.164H166.953C166.636 128.15 166.333 128.033 166.089 127.832C165.844 127.631 165.672 127.357 165.597 127.049L162.585 112.952C162.546 112.819 162.54 112.68 162.566 112.544C162.593 112.409 162.651 112.282 162.736 112.173C162.822 112.065 162.932 111.979 163.058 111.922C163.183 111.864 163.321 111.838 163.458 111.845H169.965C170.28 111.858 170.582 111.973 170.827 112.173C171.071 112.372 171.244 112.646 171.32 112.952L174.332 127.049C174.371 127.182 174.377 127.322 174.35 127.458C174.324 127.593 174.266 127.721 174.181 127.83C174.095 127.938 173.985 128.025 173.86 128.083C173.735 128.141 173.597 128.169 173.459 128.164V128.164Z" fill="white"/>
<path d="M171.125 119.858L173.143 119.413C173.516 119.331 173.903 119.338 174.272 119.435C174.641 119.532 174.982 119.716 175.267 119.971L177.962 122.395C178.491 122.875 178.898 123.473 179.151 124.141C179.403 124.809 179.494 125.527 179.416 126.236L179.31 127.125C176.02 128.096 171.78 126.725 171.78 126.725L170.515 126.469C170.254 126.424 170.006 126.328 169.783 126.185C169.56 126.043 169.368 125.858 169.217 125.641C169.066 125.424 168.96 125.179 168.905 124.92C168.85 124.662 168.847 124.395 168.896 124.135L169.37 121.627C169.463 121.196 169.678 120.799 169.989 120.486C170.299 120.172 170.694 119.954 171.125 119.858V119.858Z" fill="#CE7A63"/>
<path d="M205.833 105.196C204.729 105.091 203.628 105.428 202.772 106.134C201.917 106.84 201.376 107.857 201.27 108.961V109.104C201.194 109.857 201.096 110.776 200.998 111.627C200.901 112.478 200.78 113.359 200.652 114.225C200.396 115.964 200.087 117.681 199.741 119.383C199.394 121.085 198.988 122.757 198.498 124.391C198.099 125.701 197.64 126.966 197.15 128.201C196.543 128.226 195.935 128.188 195.335 128.088C193.391 127.796 191.469 127.371 189.582 126.816C187.812 126.259 186.028 125.611 184.243 124.933C182.458 124.255 180.658 123.525 178.904 122.825H178.859C178.387 122.628 177.859 122.612 177.376 122.779C176.893 122.946 176.488 123.285 176.238 123.731C175.988 124.177 175.91 124.699 176.02 125.198C176.13 125.698 176.419 126.139 176.833 126.439C178.49 127.659 180.161 128.698 181.886 129.783C183.61 130.867 185.395 131.794 187.255 132.69C189.397 133.628 191.613 134.384 193.882 134.949C195.109 135.287 196.374 135.47 197.647 135.491C198.5 135.501 199.349 135.376 200.163 135.122C201.304 134.773 202.322 134.107 203.099 133.202C203.235 133.034 203.355 132.855 203.461 132.667L203.536 132.524C204.51 130.731 205.356 128.871 206.067 126.959C206.752 125.095 207.336 123.194 207.814 121.266C208.303 119.361 208.68 117.44 208.988 115.512C209.131 114.541 209.259 113.577 209.372 112.606C209.485 111.634 209.568 110.693 209.621 109.593C209.678 108.513 209.316 107.453 208.611 106.634C207.905 105.814 206.91 105.299 205.833 105.196V105.196Z" fill="#CE7A63"/>
<path d="M207.091 101.867C211.745 105.158 211.97 110.083 209.455 119.511C206.089 121.198 197.911 119.067 197.911 119.067C197.911 119.067 200.486 104.427 207.091 101.867Z" fill="#F82647"/>
<path d="M190.342 83.1761C190.342 83.1761 192.602 82.7318 198.739 82.92C197.986 84.7575 196.57 86.2184 193.4 86.1205C192.639 86.1701 191.89 85.9156 191.316 85.4129C190.743 84.9102 190.393 84.2005 190.342 83.4396C190.342 83.3493 190.335 83.2664 190.342 83.1761Z" fill="#263238"/>
<path d="M194.906 84.6819C193.69 84.5789 192.473 84.8607 191.427 85.4877C192.005 85.8854 192.69 86.0981 193.392 86.0977C194.606 86.2043 195.821 85.9221 196.864 85.2919C196.292 84.8866 195.607 84.6731 194.906 84.6819V84.6819Z" fill="#BA4D3C"/>
<path d="M190.621 83.1385C190.678 83.3663 190.795 83.5743 190.961 83.7402C191.127 83.9061 191.335 84.0236 191.563 84.0798C193.396 84.1316 195.229 84.0283 197.045 83.7711C197.334 83.752 197.615 83.6624 197.861 83.5102C198.108 83.3579 198.314 83.1476 198.461 82.8975C195.845 82.7707 193.224 82.8513 190.621 83.1385V83.1385Z" fill="white"/>
<path d="M198.174 66.684C197.78 66.7442 197.389 66.8323 197.007 66.9476V67.309C197.998 67.2957 198.984 67.4406 199.929 67.7383C205.14 69.3272 205.953 72.2566 204.206 76.5867C203.37 78.6501 202.919 83.0253 203.883 83.8462C204.131 84.057 204.884 84.0269 205.863 83.8462C206.511 82.3401 207.128 80.5854 207.919 78.3714C208.475 76.9236 208.635 75.3535 208.382 73.8233C208.128 72.2931 207.471 70.8583 206.478 69.667C205.484 68.4758 204.191 67.5712 202.731 67.0468C201.272 66.5224 199.699 66.3971 198.174 66.684V66.684Z" fill="#263238"/>
<path d="M208.22 84.2524C207.737 84.7569 207.159 85.1605 206.52 85.4397C205.88 85.719 205.191 85.8683 204.492 85.8791C202.685 85.8791 202.399 84.0115 203.416 82.4602C204.327 81.067 206.36 79.3877 207.934 80.1483C209.508 80.9089 209.47 82.9647 208.22 84.2524Z" fill="#CE7A63"/>
<g opacity="0.9">
<path d="M197.112 116.243C184.43 115.49 178.707 113.117 176.425 111.792C176.352 111.753 176.284 111.705 176.222 111.649C175.567 111.077 176.395 110.03 177.156 110.467C179.152 111.619 184.649 113.961 197.202 114.736C197.401 114.748 197.587 114.838 197.719 114.986C197.852 115.134 197.92 115.329 197.91 115.527V115.527C197.905 115.627 197.881 115.724 197.838 115.814C197.795 115.905 197.735 115.985 197.661 116.052C197.586 116.118 197.5 116.169 197.405 116.202C197.311 116.235 197.212 116.249 197.112 116.243Z" fill="white"/>
</g>
<g opacity="0.9">
<path d="M196.45 123.412C196.45 123.514 196.429 123.615 196.389 123.709C196.349 123.803 196.29 123.888 196.216 123.958C196.142 124.029 196.055 124.083 195.959 124.119C195.863 124.154 195.761 124.17 195.659 124.165C188.424 123.902 181.308 122.234 174.709 119.255C174.618 119.21 174.537 119.147 174.471 119.069C174.405 118.992 174.355 118.902 174.325 118.805C174.295 118.708 174.285 118.605 174.295 118.504C174.305 118.403 174.336 118.305 174.385 118.216V118.216C174.478 118.047 174.632 117.92 174.815 117.861C174.999 117.802 175.198 117.816 175.372 117.9C181.793 120.772 188.705 122.387 195.734 122.659C195.928 122.669 196.11 122.752 196.243 122.892C196.376 123.033 196.45 123.219 196.45 123.412V123.412Z" fill="white"/>
</g>
<g opacity="0.9">
<path d="M183.694 135.965C177.82 134.821 174.8 134.037 173.527 133.706C173.43 133.678 173.339 133.63 173.26 133.566C173.181 133.501 173.116 133.422 173.069 133.332C173.022 133.242 172.994 133.143 172.986 133.042C172.978 132.94 172.99 132.838 173.023 132.742C173.085 132.559 173.215 132.407 173.386 132.318C173.557 132.228 173.756 132.207 173.942 132.26C175.162 132.607 178.174 133.382 183.98 134.519C184.175 134.558 184.348 134.672 184.459 134.837C184.571 135.002 184.612 135.205 184.575 135.4V135.4C184.53 135.59 184.413 135.755 184.248 135.861C184.084 135.966 183.885 136.004 183.694 135.965Z" fill="white"/>
</g>
<path d="M197.098 69.1917C196.844 69.2988 196.56 69.3028 196.304 69.203C196.048 69.1031 195.841 68.9072 195.727 68.6571C195.624 68.4024 195.59 68.1255 195.627 67.8535C195.664 67.5815 195.771 67.3238 195.938 67.1058C196.275 66.6696 196.715 66.3231 197.218 66.0967C196.792 66.6029 196.494 67.205 196.352 67.8513C196.367 68.4387 196.548 69.38 197.098 69.1917Z" fill="#263238"/>
<path d="M203.386 84.5616C203.384 84.6307 203.368 84.6988 203.338 84.7612C203.309 84.8237 203.266 84.8792 203.214 84.924C203.161 84.9688 203.099 85.002 203.033 85.0213C202.967 85.0406 202.897 85.0456 202.828 85.036C202.69 85.0062 202.563 84.9381 202.462 84.8395C202.361 84.741 202.29 84.616 202.256 84.4788C202.199 84.2005 202.199 83.9136 202.256 83.6353C202.302 82.9936 202.457 82.3645 202.715 81.7753C202.975 81.1811 203.448 80.7057 204.041 80.4424C204.147 80.568 204.214 80.7213 204.236 80.8841C204.257 81.0469 204.231 81.2125 204.161 81.3611C204.006 81.6259 203.83 81.8777 203.634 82.1142C203.407 82.4506 203.26 82.8345 203.204 83.2364C203.148 83.6384 203.184 84.0478 203.31 84.4336C203.371 84.4487 203.325 84.5541 203.386 84.5616Z" fill="#263238"/>
<path d="M118.539 132.328H64.9208C62.9436 132.328 61.0473 133.113 59.6492 134.511C58.251 135.909 57.4656 137.806 57.4656 139.783V180.538C57.4656 182.516 58.251 184.412 59.6492 185.81C61.0473 187.208 62.9436 187.994 64.9208 187.994H105.428C105.821 191.185 107.367 194.122 109.775 196.252C112.182 198.382 115.286 199.559 118.501 199.561C118.795 199.561 119.088 199.561 119.382 199.515C117.288 196.759 115.579 192.738 114.457 187.994H118.561C120.538 187.994 122.435 187.208 123.833 185.81C125.231 184.412 126.016 182.516 126.016 180.538V139.783C126.016 138.802 125.823 137.831 125.447 136.925C125.071 136.019 124.52 135.196 123.825 134.503C123.13 133.811 122.306 133.262 121.399 132.889C120.491 132.515 119.52 132.325 118.539 132.328Z" fill="#F82647"/>
<path opacity="0.4" d="M118.539 132.328H64.9208C62.9436 132.328 61.0473 133.113 59.6492 134.511C58.251 135.909 57.4656 137.806 57.4656 139.783V180.538C57.4656 182.516 58.251 184.412 59.6492 185.81C61.0473 187.208 62.9436 187.994 64.9208 187.994H105.428C105.821 191.185 107.367 194.122 109.775 196.252C112.182 198.382 115.286 199.559 118.501 199.561C118.795 199.561 119.088 199.561 119.382 199.515C117.288 196.759 115.579 192.738 114.457 187.994H118.561C120.538 187.994 122.435 187.208 123.833 185.81C125.231 184.412 126.016 182.516 126.016 180.538V139.783C126.016 138.802 125.823 137.831 125.447 136.925C125.071 136.019 124.52 135.196 123.825 134.503C123.13 133.811 122.306 133.262 121.399 132.889C120.491 132.515 119.52 132.325 118.539 132.328Z" fill="white"/>
<path d="M129.277 149.648L133.449 145.785L137.019 152.389C137.019 152.389 132.884 155.545 130.437 153.602L129.277 149.648Z" fill="#FF8B7B"/>
<path d="M129.277 149.641L126.438 155.68L130.331 158.903L133.735 153.391L129.277 149.641Z" fill="#FF8B7B"/>
<path d="M137.418 146.681L138.103 149.174C138.273 149.756 138.26 150.377 138.066 150.952C137.872 151.527 137.507 152.029 137.019 152.389L135.513 153.391L131.25 145.905L134.903 144.987C135.179 144.93 135.465 144.929 135.742 144.984C136.019 145.038 136.282 145.148 136.516 145.306C136.75 145.464 136.951 145.666 137.106 145.903C137.261 146.139 137.367 146.403 137.418 146.681V146.681Z" fill="#FF8B7B"/>
<path d="M129.277 149.648C129.277 149.648 130.783 144.994 130.542 143.571C130.414 142.72 131.296 142.856 132.003 143.112C132.276 143.205 132.515 143.378 132.687 143.609C132.859 143.841 132.957 144.119 132.967 144.407C133.028 145.913 132.967 148.85 131.815 149.038C130.953 149.169 130.104 149.373 129.277 149.648V149.648Z" fill="#FF8B7B"/>
<path d="M134.15 154.483C132.979 153.174 131.419 152.277 129.699 151.923L128.434 151.659C127.681 151.508 127.538 151.659 127.448 151.877L127.086 152.442L126.333 153.564C125.836 154.317 125.339 155.07 124.827 155.823C123.825 157.329 122.779 158.738 121.724 160.108C120.737 161.418 119.652 162.652 118.479 163.798L118.17 164.084C117.778 163.663 117.417 163.218 117.025 162.759C115.923 161.365 114.895 159.915 113.945 158.414C112.974 156.908 109.826 152.344 108.968 150.703C108.538 149.889 108.117 149.061 107.717 148.233L107.138 146.99C106.964 146.591 106.754 146.124 106.633 145.823L106.55 145.627C105.933 144.268 104.803 143.209 103.407 142.681C102.011 142.153 100.462 142.199 99.1003 142.809C97.7381 143.419 96.6728 144.543 96.137 145.936C95.6012 147.329 95.6386 148.878 96.2409 150.243C96.512 150.853 96.7228 151.29 96.9939 151.795L97.747 153.24C98.249 154.199 98.7511 155.141 99.2531 156.064C100.322 157.924 103.726 162.669 104.976 164.453C106.243 166.27 107.629 168.001 109.126 169.634C110.7 171.372 112.443 172.948 114.329 174.341L114.563 174.514C115.142 174.934 115.809 175.217 116.514 175.341C117.218 175.465 117.942 175.427 118.629 175.23C120.164 174.782 121.594 174.034 122.839 173.031C123.79 172.277 124.674 171.443 125.482 170.538C126.895 168.949 128.182 167.252 129.33 165.463C130.437 163.753 131.409 162.006 132.342 160.259C132.787 159.37 133.224 158.489 133.63 157.586L134.233 156.23L134.526 155.545C134.617 155.304 134.662 155.04 134.15 154.483Z" fill="#263238"/>
<path opacity="0.4" d="M106.241 152.088L102.1 155.017L100.91 157.849C101.113 158.225 101.309 158.602 101.52 158.978C102.581 160.838 103.779 162.646 104.999 164.431C106.266 166.248 107.652 167.978 109.148 169.612C109.901 170.365 110.654 171.118 111.407 171.871C109.374 167.089 106.241 152.088 106.241 152.088Z" fill="black"/>
<path d="M69.2208 174.981C69.5446 182.512 68.3548 182.165 68.3247 187.994H105.021C107.017 170.214 106.083 167.481 106.121 155.68C106.121 149.038 105.104 142.261 98.4921 141.568C90.7263 140.81 82.9028 140.861 75.1474 141.719C73.9856 141.86 72.8637 142.232 71.8477 142.813C70.8316 143.394 69.9418 144.172 69.2306 145.101C68.5193 146.031 68.0008 147.093 67.7056 148.226C67.4103 149.358 67.3443 150.538 67.5114 151.697C68.9949 161.735 68.1891 167.42 69.2208 174.981Z" fill="#263238"/>
<path opacity="0.9" d="M95.1412 141.289C90.252 140.969 85.3476 140.954 80.4565 141.244C80.562 142.75 81.7066 146.515 90.043 149.776C90.043 149.776 91.903 145.74 93.4694 147.554C93.4694 147.554 94.727 145.235 97.4229 149.505C97.4229 149.505 101.444 145.197 95.1412 141.289Z" fill="white"/>
<path opacity="0.4" d="M75.3058 151.968C76.1116 158.949 71.6535 170.621 69.2814 176.261C69.2814 175.87 69.2814 175.441 69.2814 174.981C68.6337 170.267 68.7091 166.276 68.5283 161.517L75.3058 151.968Z" fill="black"/>
<path d="M84.0564 127.93C84.18 132.509 83.2956 137.06 81.4659 141.259C81.3979 141.419 81.381 141.596 81.4174 141.766C81.4538 141.936 81.5417 142.09 81.6692 142.208C84.7421 144.857 88.6824 146.284 92.7391 146.214C97.6717 146.275 97.3855 144.708 96.2183 142.999C96.0482 142.756 95.8272 142.553 95.5706 142.404C92.1969 140.401 92.0764 137.72 93.0253 136.101L84.0564 127.93Z" fill="#FF8B7B"/>
<path opacity="0.2" d="M84.0637 127.93L93.025 136.101C92.7257 136.615 92.5525 137.193 92.5198 137.788C92.4871 138.382 92.5957 138.976 92.8368 139.52C90.9459 139.579 89.1029 138.919 87.6783 137.675C85.3665 135.709 84.5833 133.39 84.0034 130.144C84.0486 129.436 84.0637 128.683 84.0637 127.93Z" fill="black"/>
<path d="M81.3904 123.683C81.782 129.707 80.931 130.671 83.9884 133.721C88.5896 138.307 96.0825 139.181 97.1444 133.081C98.0932 127.583 98.6505 117.636 92.7088 115.316C91.3995 114.795 89.979 114.617 88.5816 114.798C87.1842 114.98 85.8561 115.514 84.7229 116.352C83.5898 117.189 82.6891 118.302 82.1059 119.585C81.5228 120.868 81.2765 122.278 81.3904 123.683V123.683Z" fill="#FF8B7B"/>
<path d="M96.0147 130.189C96.0147 130.189 93.8986 129.519 87.8967 129.263C88.5368 131.416 89.7944 133.209 92.8669 133.307C95.9394 133.405 96.0147 130.189 96.0147 130.189Z" fill="#263238"/>
<path d="M91.4964 131.552C92.7048 131.533 93.8802 131.947 94.8098 132.719C94.2543 133.135 93.5667 133.336 92.8745 133.284C91.6639 133.308 90.4859 132.891 89.561 132.109C90.1176 131.695 90.8051 131.498 91.4964 131.552V131.552Z" fill="#FF5652"/>
<path d="M95.7436 130.091C95.5628 130.535 95.3746 130.987 94.7721 131.108C92.9951 131.024 91.2301 130.772 89.5007 130.355C89.2036 130.301 88.9257 130.171 88.6946 129.976C88.4634 129.782 88.287 129.531 88.1829 129.248C90.7236 129.297 93.2544 129.579 95.7436 130.091V130.091Z" fill="white"/>
<path d="M93.6572 124.564C94.2918 125.687 95.0801 126.716 95.9992 127.621C95.7618 127.854 95.4761 128.031 95.1624 128.14C94.8487 128.25 94.5148 128.288 94.1844 128.254L93.6572 124.564Z" fill="#FF5652"/>
<path d="M87.7161 121.966C87.6647 121.959 87.617 121.935 87.5806 121.898C87.5521 121.87 87.5295 121.837 87.5141 121.8C87.4987 121.763 87.4907 121.723 87.4907 121.683C87.4907 121.643 87.4987 121.604 87.5141 121.567C87.5295 121.53 87.5521 121.497 87.5806 121.469C87.8927 121.102 88.2881 120.816 88.7335 120.634C89.179 120.452 89.6616 120.379 90.141 120.422C90.2209 120.434 90.2927 120.477 90.3407 120.542C90.3888 120.607 90.409 120.689 90.397 120.768C90.385 120.848 90.3418 120.92 90.2768 120.968C90.2119 121.016 90.1305 121.036 90.0506 121.025V121.025C89.6696 120.995 89.2871 121.057 88.9348 121.205C88.5824 121.353 88.2705 121.583 88.0249 121.875C87.9872 121.918 87.9382 121.949 87.8836 121.965C87.8289 121.981 87.7709 121.981 87.7161 121.966V121.966Z" fill="#263238"/>
<path d="M97.7165 123.035C97.6673 123.044 97.6168 123.04 97.5695 123.024C97.5222 123.008 97.4795 122.981 97.4453 122.945C97.1956 122.66 96.8815 122.439 96.5291 122.3C96.1768 122.162 95.7964 122.109 95.4196 122.147C95.3418 122.16 95.262 122.142 95.1972 122.097C95.1324 122.052 95.0879 121.983 95.0732 121.906C95.06 121.826 95.0787 121.744 95.1252 121.678C95.1716 121.612 95.2422 121.566 95.3217 121.552C95.7967 121.5 96.2773 121.561 96.7238 121.731C97.1704 121.902 97.57 122.176 97.8897 122.531C97.9181 122.559 97.9407 122.592 97.9561 122.629C97.9716 122.666 97.9795 122.705 97.9795 122.745C97.9795 122.785 97.9716 122.825 97.9561 122.862C97.9407 122.899 97.9181 122.932 97.8897 122.96C97.8409 123.002 97.7805 123.028 97.7165 123.035V123.035Z" fill="#263238"/>
<path d="M58.0453 176.208C58.0584 176.493 58.1013 176.776 58.1733 177.052C58.8537 179.46 59.738 181.805 60.8166 184.063C61.3638 185.258 61.9286 186.432 62.5109 187.587C63.2867 187.853 64.1007 187.99 64.9207 187.994H73.0462L72.2405 186.194C71.3443 184.229 70.5159 182.256 69.7629 180.305C69.1356 178.723 68.6075 177.103 68.1815 175.455C68.2669 174.825 68.3952 174.201 68.5655 173.588C68.799 172.684 69.1153 171.705 69.4767 170.711C70.2298 168.731 71.0581 166.69 71.9618 164.687C72.8655 162.684 73.8671 160.628 74.8762 158.602C75.8853 156.576 76.9395 154.528 77.9863 152.615V152.547L78.039 152.434C78.722 151.101 78.8475 149.551 78.3878 148.126C77.9282 146.7 76.9209 145.515 75.5878 144.832C74.2546 144.149 72.7047 144.024 71.2791 144.483C69.8534 144.943 68.6687 145.95 67.9857 147.284C66.8561 149.498 65.8395 151.614 64.8153 153.805C63.7911 155.996 62.8649 158.21 61.9612 160.47C61.0575 162.729 60.2442 165.01 59.4912 167.458C59.1222 168.685 58.7908 169.951 58.5122 171.314C58.1658 172.865 58.0065 174.453 58.0378 176.043L58.0453 176.208Z" fill="#263238"/>
<path d="M78.6568 127.719C79.1789 129.01 80.1722 130.055 81.4356 130.641C83.0471 131.334 83.9357 129.76 83.5517 127.952C83.2128 126.333 81.9552 124.014 80.306 124.089C78.6568 124.164 77.9715 126.062 78.6568 127.719Z" fill="#FF8B7B"/>
<path d="M89.1389 124.014C89.1389 124.533 89.3573 124.978 89.7112 125C90.0652 125.023 90.3589 124.616 90.3815 124.082C90.404 123.547 90.1631 123.118 89.8167 123.095C89.4703 123.073 89.169 123.479 89.1389 124.014Z" fill="#2E353A"/>
<path d="M95.0957 124.36C95.0957 124.887 95.3216 125.332 95.6605 125.354C95.9994 125.377 96.3081 124.963 96.3458 124.436C96.3834 123.908 96.1199 123.472 95.781 123.449C95.4421 123.427 95.1258 123.833 95.0957 124.36Z" fill="#2E353A"/>
<path d="M112.326 26.6963H58.7388C56.7628 26.6983 54.8685 27.4847 53.472 28.8826C52.0754 30.2805 51.291 32.1757 51.291 34.1516V74.9071C51.29 75.8858 51.4819 76.8551 51.8558 77.7595C52.2296 78.664 52.7781 79.4859 53.4697 80.1783C54.1614 80.8707 54.9828 81.42 55.8869 81.7947C56.791 82.1695 57.7601 82.3624 58.7388 82.3624H99.2307C99.6188 85.5546 101.162 88.4943 103.569 90.6266C105.976 92.759 109.081 93.9365 112.296 93.9369C112.597 93.9369 112.891 93.9369 113.185 93.8917C111.091 91.128 109.374 87.1142 108.26 82.3624H112.364C114.341 82.3624 116.238 81.5769 117.636 80.1788C119.034 78.7807 119.819 76.8844 119.819 74.9071V34.1516C119.818 33.1697 119.624 32.1976 119.246 31.2911C118.869 30.3845 118.316 29.5614 117.62 28.8688C116.924 28.1762 116.098 27.6278 115.19 27.255C114.281 26.8822 113.308 26.6924 112.326 26.6963Z" fill="#F82647"/>
<path opacity="0.4" d="M112.326 26.6963H58.7388C56.7628 26.6983 54.8685 27.4847 53.472 28.8826C52.0754 30.2805 51.291 32.1757 51.291 34.1516V74.9071C51.29 75.8858 51.4819 76.8551 51.8558 77.7595C52.2296 78.664 52.7781 79.4859 53.4697 80.1783C54.1614 80.8707 54.9828 81.42 55.8869 81.7947C56.791 82.1695 57.7601 82.3624 58.7388 82.3624H99.2307C99.6188 85.5546 101.162 88.4943 103.569 90.6266C105.976 92.759 109.081 93.9365 112.296 93.9369C112.597 93.9369 112.891 93.9369 113.185 93.8917C111.091 91.128 109.374 87.1142 108.26 82.3624H112.364C114.341 82.3624 116.238 81.5769 117.636 80.1788C119.034 78.7807 119.819 76.8844 119.819 74.9071V34.1516C119.818 33.1697 119.624 32.1976 119.246 31.2911C118.869 30.3845 118.316 29.5614 117.62 28.8688C116.924 28.1762 116.098 27.6278 115.19 27.255C114.281 26.8822 113.308 26.6924 112.326 26.6963Z" fill="white"/>
<path d="M99.1932 82.3629C98.886 77.9855 98.886 73.5919 99.1932 69.2145C99.6601 61.5032 97.3558 53.1668 95.6162 51.7435C93.1085 49.6726 90.774 47.7222 89.9457 50.3278C89.4637 51.8339 89.3206 54.319 89.3508 57.1053C89.4261 63.8376 90.8569 72.2342 91.5346 76.1125C91.7831 77.4831 92.4082 82.3704 92.4082 82.3704L99.1932 82.3629Z" fill="#F82647"/>
<path d="M94.5092 52.0746C94.4234 51.5211 94.1794 51.0041 93.8067 50.5859C93.4339 50.1678 92.9483 49.8662 92.4082 49.7175C90.5256 49.213 87.2724 48.3922 84.3128 47.865C80.8253 47.2983 77.3025 46.9762 73.77 46.9011C71.5109 46.8107 69.342 46.9011 67.6025 46.9764C67.3963 46.9926 67.1921 47.0279 66.9925 47.0818C66.625 47.186 66.2817 47.3616 65.9821 47.5985C65.6825 47.8355 65.4325 48.1291 65.2465 48.4627C65.0604 48.7963 64.942 49.1633 64.8979 49.5427C64.8538 49.9222 64.8848 50.3065 64.9894 50.6739C69.455 66.6162 70.3813 74.2446 70.6147 82.3626H92.4082C93.4248 74.9977 95.4204 68.9506 95.6012 64.6206C95.7563 60.4095 95.3895 56.1955 94.5092 52.0746Z" fill="#F82647"/>
<path opacity="0.8" d="M94.5092 52.0746C94.4234 51.5211 94.1794 51.0041 93.8067 50.5859C93.4339 50.1678 92.9483 49.8662 92.4082 49.7175C90.5256 49.213 87.2724 48.3922 84.3128 47.865C80.8253 47.2983 77.3025 46.9762 73.77 46.9011C71.5109 46.8107 69.342 46.9011 67.6025 46.9764C67.3963 46.9926 67.1921 47.0279 66.9925 47.0818C66.625 47.186 66.2817 47.3616 65.9821 47.5985C65.6825 47.8355 65.4325 48.1291 65.2465 48.4627C65.0604 48.7963 64.942 49.1633 64.8979 49.5427C64.8538 49.9222 64.8848 50.3065 64.9894 50.6739C69.455 66.6162 70.3813 74.2446 70.6147 82.3626H92.4082C93.4248 74.9977 95.4204 68.9506 95.6012 64.6206C95.7563 60.4095 95.3895 56.1955 94.5092 52.0746Z" fill="white"/>
<path d="M85.5553 44.1827C84.1245 46.118 83.0778 48.4149 85.3219 50.9602C85.8085 51.4913 86.0936 52.1761 86.1276 52.8956C86.1276 54.0478 85.4875 55.1547 81.7373 52.9558C76.3002 49.7629 76.7596 46.1783 76.7596 46.1783C79.6137 45.3123 81.3231 39.3104 81.9858 35.8765L85.5553 44.1827Z" fill="#FFB573"/>
<path opacity="0.2" d="M82.2865 41.0048C81.8724 42.4657 83.4161 44.7701 84.5909 45.7189C84.8645 45.1896 85.1846 44.6856 85.5473 44.2128L83.4387 39.2803C82.9456 39.7743 82.5542 40.3602 82.2865 41.0048V41.0048Z" fill="black"/>
<path d="M96.595 26.1244C98.5078 28.5493 94.2003 35.854 93.7334 34.3252C92.9803 31.8402 91.8808 26.7947 91.8959 24.7238C91.926 21.4555 94.6898 23.7071 96.595 26.1244Z" fill="#263238"/>
<path d="M80.7359 26.8848C81.2436 26.0207 81.9165 25.2652 82.7162 24.6613C83.5159 24.0574 84.4268 23.617 85.3967 23.3653C86.3667 23.1135 87.3768 23.0553 88.3692 23.1941C89.3617 23.3328 90.3171 23.6657 91.1809 24.1737C96.3092 27.1408 95.9176 35.4696 94.0349 40.2591C91.9716 45.5982 84.9983 46.2835 81.3911 41.4263C78.9663 38.1882 79.275 35.8311 79.7043 30.2509C79.7793 29.0635 80.1327 27.9103 80.7359 26.8848V26.8848Z" fill="#FFB573"/>
<path d="M87.5511 33.0448C87.5135 33.5041 87.7168 33.8957 88.0105 33.9258C88.3042 33.956 88.5828 33.6096 88.6355 33.1728C88.6882 32.736 88.4698 32.3218 88.1762 32.2917C87.8825 32.2616 87.6189 32.6456 87.5511 33.0448Z" fill="#263238"/>
<path d="M88.0254 32.3596L89.1474 32.1562C89.1474 32.1562 88.5149 32.9244 88.0254 32.3596Z" fill="#263238"/>
<path d="M93.2593 34.3476C93.2593 34.807 93.425 35.1986 93.7186 35.2287C94.0123 35.2588 94.291 34.9124 94.3437 34.4756C94.3964 34.0389 94.178 33.6247 93.8843 33.5946C93.5906 33.5644 93.3271 33.9184 93.2593 34.3476Z" fill="#263238"/>
<path d="M93.7336 33.6325L94.8557 33.4292C94.8557 33.4292 94.2231 34.1973 93.7336 33.6325Z" fill="#263238"/>
<path d="M91.1201 37.7892C91.3841 37.8965 91.6683 37.9454 91.953 37.9324C92.2377 37.9194 92.5162 37.8448 92.7693 37.7139C92.2275 36.7398 91.8221 35.6958 91.5644 34.6113L91.1201 37.7892Z" fill="#ED893E"/>
<path d="M86.82 37.6009C86.8061 37.5687 86.8046 37.5324 86.8157 37.4991C86.8268 37.4657 86.8498 37.4377 86.8803 37.4202C86.9123 37.4044 86.9492 37.4019 86.983 37.4132C87.0168 37.4245 87.0449 37.4486 87.061 37.4804C87.3391 37.9744 87.7306 38.3952 88.2033 38.7081C88.6759 39.021 89.2162 39.2171 89.7795 39.2802C89.812 39.289 89.8404 39.3088 89.8596 39.3364C89.8789 39.3639 89.8879 39.3974 89.885 39.4309V39.4309C89.8832 39.4475 89.878 39.4635 89.8697 39.478C89.8613 39.4925 89.8501 39.5052 89.8366 39.5151C89.8232 39.525 89.8078 39.532 89.7915 39.5356C89.7752 39.5393 89.7583 39.5395 89.7419 39.5363C89.5252 39.5125 89.311 39.4697 89.1018 39.4083C88.6205 39.2735 88.1709 39.0443 87.7792 38.734C87.3874 38.4237 87.0614 38.0385 86.82 37.6009V37.6009Z" fill="#263238"/>
<path d="M87.3552 30.1454C87.3133 30.0895 87.2953 30.0192 87.3051 29.95C87.315 29.8808 87.352 29.8183 87.4079 29.7764C87.8553 29.5052 88.3555 29.3327 88.875 29.2703C89.3945 29.208 89.9213 29.2573 90.4202 29.4149C90.4864 29.4389 90.5407 29.4876 90.5716 29.5508C90.6025 29.6141 90.6076 29.6869 90.5858 29.7538C90.5635 29.8195 90.5162 29.8737 90.4542 29.9047C90.3921 29.9357 90.3204 29.941 90.2545 29.9195C89.8385 29.7853 89.3989 29.7401 88.9643 29.7868C88.5297 29.8335 88.1097 29.9711 87.7317 30.1906C87.6878 30.2254 87.6334 30.2444 87.5774 30.2444C87.5213 30.2444 87.4669 30.2254 87.423 30.1906L87.3552 30.1454Z" fill="#263238"/>
<path d="M95.5706 31.8853C95.3897 31.6023 95.1433 31.367 94.8524 31.1992C94.5614 31.0315 94.2343 30.9362 93.8988 30.9214C93.8635 30.9224 93.8285 30.9163 93.7956 30.9035C93.7628 30.8907 93.7328 30.8715 93.7075 30.8469C93.6822 30.8223 93.6622 30.7929 93.6484 30.7605C93.6347 30.728 93.6277 30.6931 93.6277 30.6578C93.6277 30.5872 93.6552 30.5194 93.7044 30.4687C93.7536 30.4181 93.8207 30.3887 93.8913 30.3867C94.3144 30.4016 94.7279 30.5173 95.0973 30.7243C95.4666 30.9312 95.7812 31.2234 96.0149 31.5766V31.5766C96.0343 31.605 96.0479 31.6371 96.0546 31.6709C96.0614 31.7047 96.0612 31.7396 96.0542 31.7733C96.0472 31.8071 96.0334 31.8391 96.0137 31.8674C95.994 31.8957 95.9688 31.9197 95.9396 31.938C95.9004 31.9636 95.8546 31.9772 95.8078 31.9772C95.761 31.9772 95.7152 31.9636 95.676 31.938L95.5706 31.8853Z" fill="#263238"/>
<path d="M88.7178 25.7702C87.8765 25.928 87.0808 26.2707 86.388 26.7733C85.6952 27.276 85.1226 27.9262 84.7115 28.677C84.3275 29.3848 81.8574 30.9362 81.4357 31.6365C80.1103 33.843 81.5562 40.1235 80.9312 40.5979C80.3061 41.0723 80.5245 39.2123 79.9296 38.8508C79.2984 38.5659 78.6936 38.2256 78.1223 37.8342C77.3692 37.2016 74.7561 30.3864 77.9792 26.2597C79.5829 24.0829 81.9306 22.5714 84.576 22.0124C87.256 21.557 90.0074 22.1825 92.227 23.752C92.9274 24.2565 94.1549 25.6346 92.227 26.2521C91.6999 26.4178 91.6773 25.9961 91.1276 25.8605C90.3402 25.657 89.5182 25.6262 88.7178 25.7702V25.7702Z" fill="#263238"/>
<path d="M75.9008 31.6368C77.7608 29.8294 80.0802 29.8294 82.1285 29.8294C83.1018 29.9065 84.0808 29.7966 85.0128 29.5056C87.0761 28.6095 88.3413 25.665 88.5747 24.7011C88.6995 24.3066 88.9226 23.9504 89.2229 23.6658C89.5233 23.3813 89.8911 23.1778 90.2917 23.0745C90.6178 23.0585 90.9431 23.1181 91.2423 23.2488C91.5414 23.3794 91.8063 23.5775 92.0162 23.8275C92.3852 24.3622 92.3475 25.1379 91.9032 26.0867L92.1969 26.2147C92.6864 25.1228 92.709 24.2493 92.2798 23.6167C92.0371 23.3235 91.7302 23.0902 91.3828 22.9347C91.0354 22.7793 90.6569 22.706 90.2766 22.7206C89.806 22.8255 89.3717 23.0538 89.0184 23.382C88.665 23.7102 88.4054 24.1265 88.266 24.5881C88.0551 25.4767 86.8126 28.3534 84.8847 29.1818C83.9934 29.4556 83.0576 29.5553 82.1285 29.4755C80.1254 29.4755 77.6102 29.4755 75.6824 31.3732L75.9008 31.6368Z" fill="#263238"/>
<path opacity="0.1" d="M75.9008 31.6368C77.7608 29.8294 80.0802 29.8294 82.1285 29.8294C83.1018 29.9065 84.0808 29.7966 85.0128 29.5056C87.0761 28.6095 88.3413 25.665 88.5747 24.7011C88.6995 24.3066 88.9226 23.9504 89.2229 23.6658C89.5233 23.3813 89.8911 23.1778 90.2917 23.0745C90.6178 23.0585 90.9431 23.1181 91.2423 23.2488C91.5414 23.3794 91.8063 23.5775 92.0162 23.8275C92.3852 24.3622 92.3475 25.1379 91.9032 26.0867L92.1969 26.2147C92.6864 25.1228 92.709 24.2493 92.2798 23.6167C92.0371 23.3235 91.7302 23.0902 91.3828 22.9347C91.0354 22.7793 90.6569 22.706 90.2766 22.7206C89.806 22.8255 89.3717 23.0538 89.0184 23.382C88.665 23.7102 88.4054 24.1265 88.266 24.5881C88.0551 25.4767 86.8126 28.3534 84.8847 29.1818C83.9934 29.4556 83.0576 29.5553 82.1285 29.4755C80.1254 29.4755 77.6102 29.4755 75.6824 31.3732L75.9008 31.6368Z" fill="white"/>
<path d="M77.4973 33.7526C77.5279 33.5136 77.6055 33.2829 77.7255 33.0739C77.8455 32.8649 78.0056 32.6817 78.1966 32.5348C78.3877 32.3878 78.6058 32.2801 78.8386 32.2177C79.0714 32.1553 79.3142 32.1395 79.5531 32.1712C80.9388 32.382 81.5713 34.2496 81.5713 35.4696C81.5713 36.8176 80.5698 37.8191 79.3498 37.0585C78.4358 36.4757 77.789 35.5555 77.55 34.4981C77.48 34.2561 77.462 34.0021 77.4973 33.7526V33.7526Z" fill="#FFB573"/>
<path d="M79.9602 53.626C79.6665 57.4816 76.1045 72.0457 68.3857 72.4524C67.1559 72.4868 65.9577 72.0596 65.027 71.255V71.255C58.8068 67.4897 63.6941 49.3411 64.9442 48.2868C65.487 47.8213 66.1378 47.4993 66.8372 47.3503C67.5365 47.2012 68.2621 47.2299 68.9475 47.4337C69.6329 47.6374 70.2563 48.0097 70.7607 48.5166C71.265 49.0235 71.6343 49.6487 71.8347 50.3351C71.9972 49.7609 72.1254 49.1775 72.2187 48.588C72.5425 46.6225 73.6119 42.0439 75.5849 41.7126C76.7747 41.5092 79.2222 41.4038 79.93 42.3753C80.6379 43.3467 80.4496 47.2626 79.9602 53.626Z" fill="#F82647"/>
<g opacity="0.2">
<path d="M79.5527 32.1714V32.5103L79.9067 35.8538V40.1613L80.4941 37.6009C80.6431 36.9338 80.6762 36.246 80.592 35.5677L80.1778 32.3597L79.5527 32.1714Z" fill="black"/>
</g>
<path d="M75.6826 42.4883L74.7563 35.7786L80.3516 35.7334C80.3516 35.7334 79.8922 40.7714 78.4915 42.5109L75.6826 42.4883Z" fill="#FFB573"/>
<path d="M75.7429 31.1924L79.8847 31.9228L80.329 35.7183L74.7563 35.7785L75.7429 31.1924Z" fill="#FFB573"/>
<path opacity="0.2" d="M70.1178 56.4424C70.1178 56.4424 66.7667 64.1838 66.6612 61.1189C66.5558 57.7828 70.1178 56.4424 70.1178 56.4424Z" fill="black"/>
<path d="M276.667 101.708H255.943C254.994 101.708 254.084 102.085 253.413 102.756C252.742 103.427 252.365 104.337 252.365 105.286V118.63C252.367 119.577 252.745 120.485 253.416 121.154C254.086 121.823 254.995 122.199 255.943 122.199H261.899L264.557 125.678C264.762 125.947 265.026 126.164 265.328 126.314C265.63 126.464 265.963 126.542 266.301 126.542C266.638 126.542 266.971 126.464 267.274 126.314C267.576 126.164 267.84 125.947 268.044 125.678L270.702 122.199H276.667C277.613 122.199 278.521 121.823 279.191 121.154C279.86 120.484 280.236 119.576 280.236 118.63V105.286C280.236 104.338 279.86 103.429 279.191 102.759C278.522 102.088 277.614 101.71 276.667 101.708V101.708Z" fill="#F82647"/>
<path opacity="0.7" d="M276.667 101.708H255.943C254.994 101.708 254.084 102.085 253.413 102.756C252.742 103.427 252.365 104.337 252.365 105.286V118.63C252.367 119.577 252.745 120.485 253.416 121.154C254.086 121.823 254.995 122.199 255.943 122.199H261.899L264.557 125.678C264.762 125.947 265.026 126.164 265.328 126.314C265.63 126.464 265.963 126.542 266.301 126.542C266.638 126.542 266.971 126.464 267.274 126.314C267.576 126.164 267.84 125.947 268.044 125.678L270.702 122.199H276.667C277.613 122.199 278.521 121.823 279.191 121.154C279.86 120.484 280.236 119.576 280.236 118.63V105.286C280.236 104.338 279.86 103.429 279.191 102.759C278.522 102.088 277.614 101.71 276.667 101.708V101.708Z" fill="white"/>
<path d="M275.462 110.881L268.843 106.844V109.269H265.83C263.881 109.269 262.012 110.043 260.633 111.422C259.255 112.8 258.48 114.67 258.48 116.619C258.483 117.164 258.543 117.706 258.661 118.238C259.031 116.612 259.942 115.16 261.244 114.119C262.546 113.078 264.163 112.51 265.83 112.507H268.843V114.94L275.462 110.881Z" fill="#F82647"/>
<path d="M130.845 20.0322H146.734C147.461 20.0322 148.158 20.321 148.672 20.8351C149.187 21.3491 149.475 22.0464 149.475 22.7734V33.0451C149.475 33.4047 149.404 33.7608 149.267 34.0929C149.129 34.4251 148.927 34.7267 148.672 34.9807C148.417 35.2346 148.115 35.4358 147.783 35.5727C147.45 35.7097 147.094 35.7797 146.734 35.7787H142.163L140.13 38.452C139.973 38.658 139.771 38.825 139.539 38.94C139.307 39.055 139.052 39.1148 138.793 39.1148C138.534 39.1148 138.279 39.055 138.047 38.94C137.815 38.825 137.613 38.658 137.457 38.452L135.416 35.7787H130.845C130.485 35.7797 130.13 35.7096 129.797 35.5726C129.465 35.4356 129.164 35.2343 128.91 34.9802C128.655 34.7262 128.454 34.4244 128.317 34.0923C128.18 33.7602 128.11 33.4043 128.111 33.0451V22.7734C128.11 22.4137 128.18 22.0575 128.317 21.7249C128.454 21.3924 128.655 21.0902 128.909 20.8355C129.163 20.5809 129.465 20.3789 129.797 20.241C130.129 20.1032 130.485 20.0322 130.845 20.0322V20.0322Z" fill="#F82647"/>
<path opacity="0.7" d="M130.845 20.0322H146.734C147.461 20.0322 148.158 20.321 148.672 20.8351C149.187 21.3491 149.475 22.0464 149.475 22.7734V33.0451C149.475 33.4047 149.404 33.7608 149.267 34.0929C149.129 34.4251 148.927 34.7267 148.672 34.9807C148.417 35.2346 148.115 35.4358 147.783 35.5727C147.45 35.7097 147.094 35.7797 146.734 35.7787H142.163L140.13 38.452C139.973 38.658 139.771 38.825 139.539 38.94C139.307 39.055 139.052 39.1148 138.793 39.1148C138.534 39.1148 138.279 39.055 138.047 38.94C137.815 38.825 137.613 38.658 137.457 38.452L135.416 35.7787H130.845C130.485 35.7797 130.13 35.7096 129.797 35.5726C129.465 35.4356 129.164 35.2343 128.91 34.9802C128.655 34.7262 128.454 34.4244 128.317 34.0923C128.18 33.7602 128.11 33.4043 128.111 33.0451V22.7734C128.11 22.4137 128.18 22.0575 128.317 21.7249C128.454 21.3924 128.655 21.0902 128.909 20.8355C129.163 20.5809 129.465 20.3789 129.797 20.241C130.129 20.1032 130.485 20.0322 130.845 20.0322V20.0322Z" fill="white"/>
<path d="M131.786 27.066L136.877 23.9634V25.8234H139.204C140.048 25.8258 140.882 26.0175 141.642 26.3846C142.403 26.7516 143.072 27.2846 143.599 27.9443C144.127 28.604 144.499 29.3736 144.69 30.1964C144.881 31.0193 144.884 31.8744 144.701 32.6988C144.418 31.4524 143.719 30.3392 142.721 29.5416C141.722 28.7439 140.482 28.3092 139.204 28.3085H136.877V30.1686L131.786 27.066Z" fill="#F82647"/>
</svg>
